<?xml version="1.0" encoding="UTF-8" standalone="no"?>
<!-- Created with Inkscape (http://www.inkscape.org/) -->

<svg
   version="1.1"
   id="svg2"
   width="782.11334"
   height="434.67999"
   viewBox="0 0 782.11334 434.67999"
   xmlns="http://www.w3.org/2000/svg"
   xmlns:svg="http://www.w3.org/2000/svg">
  <defs
     id="defs6">
    <clipPath
       clipPathUnits="userSpaceOnUse"
       id="clipPath22">
      <path
         d="M 0,326.01 H 586.585 V 0 H 0 Z"
         id="path20" />
    </clipPath>
  </defs>
  <g
     id="g8"
     transform="matrix(1.3333333,0,0,-1.3333333,0,434.68)">
    <path
       d="M 0,0 H 286.297 V 326.01 H 0 Z"
       style="fill:#044e54;fill-opacity:1;fill-rule:nonzero;stroke:none"
       id="path10" />
    <g
       id="g12"
       transform="translate(69.71,125.2754)">
      <path
         d="M 0,0 H 1.705 V -12.98 H 0 v 5.841 H -6.304 V -12.98 H -8.031 V 0 h 1.727 V -5.507 H 0 Z"
         style="fill:#ffffff;fill-opacity:1;fill-rule:nonzero;stroke:none"
         id="path14" />
    </g>
    <g
       id="g16">
      <g
         id="g18"
         clip-path="url(#clipPath22)">
        <g
           id="g24"
           transform="translate(76.6517,115.1962)">
          <path
             d="m 0,0 c 0.958,-0.97 2.148,-1.454 3.57,-1.454 1.421,0 2.611,0.484 3.569,1.454 0.958,0.972 1.437,2.168 1.437,3.589 0,1.433 -0.479,2.635 -1.437,3.607 C 6.181,8.165 4.991,8.65 3.57,8.65 2.148,8.65 0.958,8.165 0,7.196 -0.958,6.224 -1.437,5.022 -1.437,3.589 -1.437,2.168 -0.958,0.972 0,0 M 8.345,-1.177 C 7.039,-2.487 5.448,-3.141 3.57,-3.141 c -1.879,0 -3.468,0.654 -4.766,1.964 -1.298,1.31 -1.947,2.899 -1.947,4.766 0,1.879 0.649,3.47 1.947,4.774 1.298,1.304 2.887,1.957 4.766,1.957 1.878,0 3.469,-0.653 4.775,-1.957 C 9.649,7.059 10.3,5.468 10.3,3.589 10.3,1.722 9.649,0.133 8.345,-1.177"
             style="fill:#ffffff;fill-opacity:1;fill-rule:nonzero;stroke:none"
             id="path26" />
        </g>
        <g
           id="g28"
           transform="translate(96.5951,125.2754)">
          <path
             d="M 0,0 V -1.632 H -3.839 V -12.98 h -1.705 v 11.348 h -3.82 V 0 Z"
             style="fill:#ffffff;fill-opacity:1;fill-rule:nonzero;stroke:none"
             id="path30" />
        </g>
        <g
           id="g32"
           transform="translate(100.0259,113.9275)">
          <path
             d="m 0,0 h 6.025 v -1.632 h -7.751 v 12.98 H 5.933 V 9.716 H 0 V 5.73 H 5.47 V 4.115 H 0 Z"
             style="fill:#ffffff;fill-opacity:1;fill-rule:nonzero;stroke:none"
             id="path34" />
        </g>
        <g
           id="g36"
           transform="translate(109.8549,113.9275)">
          <path
             d="m 0,0 h 5.599 v -1.632 h -7.325 v 12.98 H 0 Z"
             style="fill:#ffffff;fill-opacity:1;fill-rule:nonzero;stroke:none"
             id="path38" />
        </g>
        <g
           id="g40"
           transform="translate(124.5026,115.1512)">
          <path
             d="m 0,0 h 5.192 v -2.856 h -8.159 v 12.98 H 5.098 V 7.268 H 0 V 5.118 H 4.635 V 2.299 L 0,2.299 Z"
             style="fill:#ffffff;fill-opacity:1;fill-rule:nonzero;stroke:none"
             id="path42" />
        </g>
        <g
           id="g44"
           transform="translate(137.4633,112.0352)">
          <path
             d="m 0,0 c -1.941,0 -3.55,0.647 -4.83,1.937 -1.279,1.292 -1.918,2.897 -1.918,4.813 0,1.916 0.639,3.519 1.918,4.811 1.28,1.292 2.889,1.939 4.83,1.939 1.163,0 2.238,-0.27 3.227,-0.807 0.99,-0.538 1.768,-1.271 2.337,-2.197 L 3.005,9.012 C 2.719,9.518 2.313,9.911 1.781,10.189 1.249,10.468 0.655,10.607 0,10.607 -1.149,10.607 -2.066,10.255 -2.752,9.549 -3.439,8.846 -3.783,7.911 -3.783,6.75 -3.783,5.587 -3.439,4.654 -2.752,3.951 -2.066,3.245 -1.149,2.893 0,2.893 c 0.655,0 1.251,0.143 1.791,0.426 0.537,0.284 0.942,0.675 1.214,1.169 L 5.564,3.005 C 5.006,2.078 4.234,1.345 3.245,0.807 2.256,0.27 1.175,0 0,0"
             style="fill:#ffffff;fill-opacity:1;fill-rule:nonzero;stroke:none"
             id="path46" />
        </g>
        <g
           id="g48"
           transform="translate(147.7263,116.0035)">
          <path
             d="M 0,0 C 0.723,-0.717 1.623,-1.075 2.698,-1.075 3.773,-1.075 4.672,-0.717 5.395,0 6.119,0.717 6.48,1.644 6.48,2.782 6.48,3.919 6.119,4.846 5.395,5.564 4.672,6.279 3.773,6.639 2.698,6.639 1.623,6.639 0.723,6.279 0,5.564 -0.723,4.846 -1.085,3.919 -1.085,2.782 -1.085,1.644 -0.723,0.717 0,0 m 7.481,-2.021 c -1.31,-1.298 -2.905,-1.947 -4.783,-1.947 -1.879,0 -3.474,0.649 -4.784,1.947 -1.31,1.298 -1.964,2.899 -1.964,4.803 0,1.904 0.654,3.505 1.964,4.803 1.31,1.298 2.905,1.947 4.784,1.947 1.878,0 3.473,-0.649 4.783,-1.947 1.312,-1.298 1.967,-2.899 1.967,-4.803 0,-1.904 -0.655,-3.505 -1.967,-4.803"
             style="fill:#ffffff;fill-opacity:1;fill-rule:nonzero;stroke:none"
             id="path50" />
        </g>
        <g
           id="g52"
           transform="translate(166.8154,125.2754)">
          <path
             d="M 0,0 V -2.856 H -3.337 V -12.98 H -6.304 V -2.856 H -9.641 V 0 Z"
             style="fill:#ffffff;fill-opacity:1;fill-rule:nonzero;stroke:none"
             id="path54" />
        </g>
        <g
           id="g56"
           transform="translate(176.6249,113.2413)">
          <path
             d="m 0,0 c -0.94,-0.803 -2.139,-1.206 -3.597,-1.206 -1.458,0 -2.659,0.403 -3.597,1.206 -0.94,0.803 -1.409,1.884 -1.409,3.245 v 8.789 h 2.965 V 3.503 c 0,-1.21 0.68,-1.816 2.041,-1.816 1.359,0 2.039,0.606 2.039,1.816 v 8.531 H 1.409 V 3.245 C 1.409,1.884 0.938,0.803 0,0"
             style="fill:#ffffff;fill-opacity:1;fill-rule:nonzero;stroke:none"
             id="path58" />
        </g>
        <g
           id="g60"
           transform="translate(183.1326,122.4937)">
          <path
             d="m 0,0 v -3.337 h 2.225 c 0.408,0 0.756,0.16 1.047,0.481 0.29,0.323 0.436,0.717 0.436,1.187 0,0.471 -0.146,0.866 -0.436,1.186 C 2.981,-0.16 2.633,0 2.225,0 Z M 3.857,-10.198 1.406,-5.933 H 0 v -4.265 h -2.967 v 12.98 h 5.192 c 1.235,0 2.287,-0.434 3.153,-1.298 0.864,-0.866 1.296,-1.916 1.296,-3.153 0,-0.792 -0.219,-1.523 -0.657,-2.198 -0.44,-0.672 -1.016,-1.196 -1.734,-1.566 l 2.762,-4.765 z"
             style="fill:#ffffff;fill-opacity:1;fill-rule:nonzero;stroke:none"
             id="path62" />
        </g>
        <path
           d="m 191.57,112.295 h 2.967 v 12.98 h -2.967 z m 1.298,16.689 h 3.337 l -2.151,-2.596 h -2.67 z"
           style="fill:#ffffff;fill-opacity:1;fill-rule:nonzero;stroke:none"
           id="path64" />
        <g
           id="g66"
           transform="translate(201.1192,112.0352)">
          <path
             d="m 0,0 c -1.323,0 -2.426,0.287 -3.31,0.862 -0.883,0.575 -1.511,1.357 -1.882,2.346 l 2.559,1.484 c 0.52,-1.199 1.427,-1.799 2.725,-1.799 1.175,0 1.763,0.352 1.763,1.058 0,0.383 -0.189,0.682 -0.567,0.899 -0.377,0.215 -1.085,0.465 -2.123,0.751 -0.543,0.148 -1.02,0.314 -1.427,0.5 -0.408,0.186 -0.807,0.43 -1.196,0.733 -0.389,0.301 -0.686,0.682 -0.89,1.14 -0.205,0.457 -0.306,0.983 -0.306,1.575 0,1.199 0.43,2.159 1.288,2.874 0.86,0.718 1.882,1.077 3.069,1.077 1.063,0 2.004,-0.252 2.819,-0.752 C 3.337,12.247 3.98,11.522 4.451,10.57 L 1.947,9.106 c -0.235,0.492 -0.526,0.868 -0.872,1.12 -0.346,0.254 -0.803,0.381 -1.372,0.381 -0.444,0 -0.788,-0.096 -1.028,-0.287 -0.241,-0.192 -0.362,-0.425 -0.362,-0.696 0,-0.321 0.15,-0.6 0.453,-0.835 C -0.931,8.554 -0.303,8.294 0.649,8.011 1.169,7.851 1.57,7.72 1.855,7.622 2.139,7.522 2.5,7.358 2.938,7.129 3.378,6.901 3.712,6.66 3.941,6.406 4.17,6.154 4.373,5.82 4.553,5.405 4.731,4.991 4.821,4.518 4.821,3.988 4.821,2.75 4.377,1.777 3.486,1.067 2.596,0.356 1.435,0 0,0"
             style="fill:#ffffff;fill-opacity:1;fill-rule:nonzero;stroke:none"
             id="path68" />
        </g>
        <g
           id="g70"
           transform="translate(215.675,125.2754)">
          <path
             d="M 0,0 V -2.856 H -3.337 V -12.98 H -6.304 V -2.856 H -9.641 V 0 Z"
             style="fill:#ffffff;fill-opacity:1;fill-rule:nonzero;stroke:none"
             id="path72" />
        </g>
        <path
           d="m 216.973,125.275 h 2.967 v -12.98 h -2.967 z"
           style="fill:#ffffff;fill-opacity:1;fill-rule:nonzero;stroke:none"
           id="path74" />
        <g
           id="g76"
           transform="translate(228.3562,112.0352)">
          <path
             d="m 0,0 c -1.941,0 -3.55,0.647 -4.83,1.937 -1.279,1.292 -1.918,2.897 -1.918,4.813 0,1.916 0.639,3.519 1.918,4.811 1.28,1.292 2.889,1.939 4.83,1.939 1.163,0 2.238,-0.27 3.227,-0.807 0.99,-0.538 1.768,-1.271 2.337,-2.197 L 3.005,9.012 C 2.719,9.518 2.313,9.911 1.781,10.189 1.249,10.468 0.655,10.607 0,10.607 -1.149,10.607 -2.066,10.255 -2.752,9.549 -3.439,8.846 -3.783,7.911 -3.783,6.75 -3.783,5.587 -3.439,4.654 -2.752,3.951 -2.066,3.245 -1.149,2.893 0,2.893 c 0.655,0 1.251,0.143 1.791,0.426 0.537,0.284 0.942,0.675 1.214,1.169 L 5.564,3.005 C 5.006,2.078 4.234,1.345 3.245,0.807 2.256,0.27 1.175,0 0,0"
             style="fill:#ffffff;fill-opacity:1;fill-rule:nonzero;stroke:none"
             id="path78" />
        </g>
        <g
           id="g80"
           transform="translate(238.6211,116.0035)">
          <path
             d="M 0,0 C 0.723,-0.717 1.623,-1.075 2.698,-1.075 3.773,-1.075 4.672,-0.717 5.395,0 6.119,0.717 6.48,1.644 6.48,2.782 6.48,3.919 6.119,4.846 5.395,5.564 4.672,6.279 3.773,6.639 2.698,6.639 1.623,6.639 0.723,6.279 0,5.564 -0.723,4.846 -1.085,3.919 -1.085,2.782 -1.085,1.644 -0.723,0.717 0,0 m 7.481,-2.021 c -1.31,-1.298 -2.905,-1.947 -4.783,-1.947 -1.879,0 -3.474,0.649 -4.784,1.947 -1.31,1.298 -1.964,2.899 -1.964,4.803 0,1.904 0.654,3.505 1.964,4.803 1.31,1.298 2.905,1.947 4.784,1.947 1.878,0 3.473,-0.649 4.783,-1.947 1.312,-1.298 1.967,-2.899 1.967,-4.803 0,-1.904 -0.655,-3.505 -1.967,-4.803"
             style="fill:#ffffff;fill-opacity:1;fill-rule:nonzero;stroke:none"
             id="path82" />
        </g>
        <g
           id="g84"
           transform="translate(202.2104,110.5796)">
          <path
             d="m 0,0 h -6.839 l -2.82,-5.112 h 5.57 z m -25.593,-22.74 2.467,8.391 2.503,-8.391 z m -1.376,15.689 -8.144,-24.678 h 6.839 l 1.059,3.561 h 8.214 l 1.057,-3.561 h 6.805 l -8.144,24.678 z m 43.045,-12.075 c -0.869,0.575 -1.669,1.016 -2.398,1.322 -0.728,0.305 -1.692,0.635 -2.89,0.987 -1.669,0.494 -2.791,0.928 -3.367,1.304 -0.576,0.377 -0.863,0.835 -0.863,1.375 0,0.47 0.193,0.858 0.581,1.164 0.388,0.305 0.957,0.458 1.71,0.458 1.786,0 3.067,-0.916 3.843,-2.75 l 5.287,3.103 c -0.846,1.833 -2.067,3.231 -3.666,4.195 -1.598,0.964 -3.431,1.445 -5.499,1.445 -2.445,0 -4.483,-0.705 -6.117,-2.115 -1.634,-1.41 -2.45,-3.256 -2.45,-5.534 0,-2.116 0.658,-3.767 1.974,-4.954 1.316,-1.187 3.103,-2.11 5.359,-2.767 1.598,-0.447 2.632,-0.765 3.102,-0.952 1.105,-0.447 1.657,-1.035 1.657,-1.763 0,-1.105 -0.963,-1.657 -2.891,-1.657 -2.326,0 -3.948,1.093 -4.864,3.278 l -5.394,-3.137 c 0.681,-1.88 1.879,-3.373 3.595,-4.478 1.716,-1.104 3.879,-1.656 6.487,-1.656 2.82,0 5.089,0.681 6.804,2.044 1.715,1.364 2.574,3.255 2.574,5.677 0,1.221 -0.211,2.285 -0.635,3.191 -0.422,0.904 -1.07,1.643 -1.939,2.22 M -9.342,-31.729 h 6.311 v 24.678 h -6.311 z m 47.029,7.527 c -1.269,-1.258 -2.856,-1.886 -4.759,-1.886 -1.904,0 -3.491,0.628 -4.76,1.886 -1.269,1.257 -1.903,2.86 -1.903,4.812 0,1.95 0.634,3.554 1.903,4.812 1.269,1.256 2.856,1.886 4.76,1.886 1.903,0 3.49,-0.63 4.759,-1.886 1.269,-1.258 1.903,-2.862 1.903,-4.812 0,-1.952 -0.634,-3.555 -1.903,-4.812 m 4.424,13.96 c -2.502,2.479 -5.565,3.719 -9.183,3.719 -3.62,0 -6.681,-1.24 -9.184,-3.719 -2.504,-2.479 -3.755,-5.529 -3.755,-9.148 0,-3.62 1.251,-6.669 3.755,-9.149 2.503,-2.479 5.564,-3.719 9.184,-3.719 3.618,0 6.681,1.24 9.183,3.719 2.504,2.48 3.755,5.529 3.755,9.149 0,3.619 -1.251,6.669 -3.755,9.148 m -85.578,-7.421 c -0.494,-0.517 -1.128,-0.764 -1.904,-0.74 h -3.49 v 5.535 h 3.49 c 0.776,0 1.41,-0.26 1.904,-0.776 0.493,-0.517 0.74,-1.187 0.74,-2.009 0,-0.823 -0.247,-1.493 -0.74,-2.01 m 5.923,-1.991 c 0.752,1.233 1.128,2.59 1.128,4.071 0,2.468 -0.852,4.506 -2.556,6.117 -1.705,1.609 -3.814,2.415 -6.329,2.415 h -9.87 v -24.678 h 6.31 v 7.967 h 2.256 l 4.302,-7.967 h 6.769 l -5.077,9.13 c 1.292,0.729 2.315,1.711 3.067,2.945 m -78.651,12.603 h -6.311 v -24.678 h 14.807 v 6.099 h -8.496 z m -18.861,-15.124 h 8.496 v 5.816 h -8.496 v 3.42 h 9.378 v 5.888 h -15.689 v -24.678 h 15.865 v 5.922 h -9.554 z m 49.019,4.582 c -0.482,-0.493 -1.075,-0.74 -1.78,-0.74 h -3.278 v 5.254 h 3.278 c 0.705,0 1.298,-0.243 1.78,-0.724 0.482,-0.481 0.723,-1.11 0.723,-1.886 0,-0.775 -0.241,-1.41 -0.723,-1.904 m 4.495,8.109 c -1.692,1.622 -3.784,2.433 -6.275,2.433 h -9.589 v -24.678 h 6.311 v 7.403 h 3.278 c 2.491,0 4.583,0.811 6.275,2.433 1.692,1.621 2.539,3.689 2.539,6.204 0,2.515 -0.847,4.584 -2.539,6.205 m 10.119,-13.256 2.468,8.391 2.502,-8.391 z m -1.376,15.689 -8.143,-24.678 h 6.84 l 1.058,3.561 h 8.214 l 1.057,-3.561 h 6.804 l -8.143,24.678 z"
             style="fill:#eac771;fill-opacity:1;fill-rule:nonzero;stroke:none"
             id="path86" />
        </g>
        <g
           id="g88"
           transform="translate(56.0395,88.7278)">
          <path
             d="m 0,0 c 0,-1.167 -0.946,-2.113 -2.113,-2.113 -1.167,0 -2.113,0.946 -2.113,2.113 0,1.167 0.946,2.113 2.113,2.113 C -0.946,2.113 0,1.167 0,0"
             style="fill:#eac771;fill-opacity:1;fill-rule:nonzero;stroke:none"
             id="path90" />
        </g>
        <g
           id="g92"
           transform="translate(257.1063,88.7278)">
          <path
             d="m 0,0 c 0,-1.167 -0.946,-2.113 -2.113,-2.113 -1.167,0 -2.113,0.946 -2.113,2.113 0,1.167 0.946,2.113 2.113,2.113 C -0.946,2.113 0,1.167 0,0"
             style="fill:#eac771;fill-opacity:1;fill-rule:nonzero;stroke:none"
             id="path94" />
        </g>
        <g
           id="g96"
           transform="translate(149.4456,239.9228)">
          <path
             d="m 0,0 c -25.355,-1.183 -45.55,-22.116 -45.55,-47.763 v -62.892 c 0,-0.385 0.312,-0.697 0.696,-0.697 h 11.235 c 0.004,0.001 0.007,0.001 0.011,0.001 2.49,0.405 4.974,0.749 7.487,0.684 6.008,-0.151 12.022,-0.133 18.025,-0.458 1.701,-0.093 3.39,0.127 5.079,0.209 3.21,0.156 6.403,-0.459 9.619,-0.041 1.91,0.244 3.849,-0.145 5.788,0.012 3.152,0.255 6.298,-0.116 9.445,-0.279 0.62,-0.029 1.241,-0.081 1.861,-0.128 10e-4,0 0.003,0 0.004,0 h 3.606 c 0.007,0.001 0.013,0.001 0.02,0.002 4.615,0.594 9.236,1.067 13.897,0.945 0.209,-0.006 0.418,-0.012 0.622,0.017 l 7.352,0.041 c 0.49,0.003 0.885,0.401 0.885,0.89 v 61.014 C 50.082,-21.042 27.371,1.277 0,0"
             style="fill:#034045;fill-opacity:1;fill-rule:nonzero;stroke:none"
             id="path98" />
        </g>
        <g
           id="g100"
           transform="translate(202.6144,155.8123)">
          <path
             d="m 0,0 c -0.144,-0.42 -0.626,-0.528 -1.056,-0.544 -3.215,-0.128 -5.938,-1.399 -8.415,-3.235 -0.369,-0.272 -0.728,-0.554 -1.087,-0.851 -1.697,-1.4 -3.933,-2.574 -5.681,-2.99 v 7.753 c 2.287,0.493 4.527,0.708 6.768,0.959 0.057,0.005 0.118,0.016 0.174,0.021 -0.056,0.015 -0.117,0.031 -0.174,0.041 -2.225,0.559 -4.446,0.154 -6.712,0.056 v 7.487 c 2.471,0.384 4.723,0.015 6.712,-1.349 C -9.245,7.189 -9.02,7.02 -8.799,6.835 -6.902,5.261 -5.123,3.543 -2.928,2.348 -2.123,1.913 -1.251,1.584 -0.559,0.959 -0.277,0.697 0.149,0.42 0,0 m -23.931,6.574 c -0.949,-0.877 -1.918,-1.728 -2.825,-2.641 -1.426,-1.42 -3.21,-1.954 -5.123,-2.097 -1.492,-0.118 -3,-0.087 -4.482,0.164 -0.492,0.082 -0.984,0.159 -1.589,0.128 0.441,0.974 0.99,1.79 1.579,2.569 5.374,7.112 11.738,13.163 19.306,17.916 2.461,1.549 4.907,3.128 7.466,4.518 0.041,0.02 0.082,0.041 0.128,0.061 0.205,0.108 0.431,0.251 0.492,0.687 -0.164,-0.066 -0.328,-0.133 -0.492,-0.205 -5.943,-2.487 -10.973,-6.276 -15.921,-10.101 -5.149,-3.99 -9.548,-8.764 -13.312,-14.209 0.2,2.01 -0.354,3.84 -0.636,5.702 -0.271,1.81 -0.702,3.584 -0.584,5.451 0.2,3.235 1.523,5.963 3.599,8.368 1.79,2.082 3.99,3.553 6.754,3.825 2.635,0.257 5.138,0.985 7.65,1.703 1.8,0.512 3.292,1.589 4.836,2.579 1.697,1.087 3.491,2.02 5.522,2.107 0.697,0.031 1.395,0.041 2.092,0.021 1.292,-0.041 2.579,-0.185 3.851,-0.498 0.995,-0.246 2.005,-0.394 3.02,-0.492 1.262,-0.123 1.636,-0.815 1.051,-1.923 -0.287,-0.538 -0.646,-1.02 -1.066,-1.456 -2.256,-2.333 -3.887,-5.015 -4.579,-8.209 -0.41,-1.887 -1.169,-3.513 -2.277,-4.877 -0.954,-1.184 -2.169,-2.174 -3.635,-2.964 -0.688,-0.369 -1.441,-0.656 -2.2,-0.841 -3.451,-0.835 -6.102,-2.953 -8.625,-5.286 m 6.676,-22.019 c -0.769,-0.235 -1.451,0.026 -2.138,0.082 -0.169,0.282 -0.108,0.58 -0.108,0.862 0.047,7.594 0.098,15.188 0.129,22.782 0.005,0.416 0.102,0.682 0.497,0.867 0.564,0.261 1.061,0.651 1.677,0.825 0.487,-8.501 -0.282,-16.947 -0.057,-25.418 m -3.138,0.088 c -0.579,0 -1.072,-0.016 -1.559,0 -2.61,0.082 -5.179,-0.313 -7.748,-0.708 -0.738,-0.118 -1.461,-0.026 -2.22,0.056 -0.241,5.656 -0.251,11.225 -0.2,16.845 0.528,0.092 1.036,0.195 1.549,0.256 2.076,0.257 3.702,1.364 5.225,2.708 1.415,1.251 2.717,2.635 4.22,3.794 0.226,0.174 0.461,0.339 0.79,0.58 0.471,-7.882 -0.354,-15.655 -0.057,-23.531 m -12.742,2.681 c -2.62,-1 -5.251,-1.589 -7.984,-0.389 -0.836,0.364 -2.025,0.405 -2.42,1.138 -0.405,0.749 0.374,1.713 0.512,2.605 0.17,1.087 0.821,1.656 1.805,2.118 2.703,1.266 5.477,2.302 8.446,2.974 0,-2.677 0,-5.297 0.005,-7.917 0,-0.283 -0.113,-0.436 -0.364,-0.529 m 0.195,-3.374 c -3.933,0.19 -7.83,0.529 -11.774,-0.133 0.221,1.138 0.426,2.179 0.795,3.318 3.528,-2.175 7.159,-2.682 10.979,-0.703 z m -14.209,5.077 c 0.954,0.825 1.856,1.389 2.907,2.097 -0.241,-0.943 -0.431,-1.692 -0.63,-2.477 -0.734,0.057 -1.359,0.441 -2.277,0.38 m 1.266,-5.189 c -2.158,0.087 -4.261,-0.77 -6.471,-0.052 1.133,1.651 2.533,2.995 4,4.256 0.62,0.534 1.359,0.005 2.041,-0.01 0.374,-0.005 0.743,-0.2 1.169,-0.328 -0.246,-1.292 -0.487,-2.559 -0.739,-3.866 m 7.148,17.121 c 0.257,0.436 0.605,0.538 1.062,0.441 1.61,-0.344 3.215,-0.733 4.943,-0.467 v -4.097 c -3.123,-0.959 -6.287,-1.764 -9.256,-3.215 0.882,2.569 1.877,5.036 3.251,7.338 m -1.856,-0.805 c -1.246,-2.118 -2.189,-4.405 -2.923,-6.758 -0.148,-0.482 -0.4,-0.8 -0.841,-1.062 -1.169,-0.687 -2.312,-1.436 -3.584,-2.236 0.692,2.108 0.498,4.241 0.939,6.292 0.651,3.005 2.374,5.323 4.691,7.246 0.687,0.569 1.436,1.056 2.308,1.692 0.113,-1.826 0.4,-3.497 -0.59,-5.174 M -53.882,-16.25 c -1.83,0.011 -3.661,0.006 -5.548,0.006 0,0.599 -0.072,1.076 0.01,1.528 0.292,1.635 0.005,3.256 -0.061,4.876 -0.072,1.646 -0.303,3.287 -0.421,4.933 -0.189,2.697 -0.754,5.333 -1.338,7.958 -0.164,0.738 -0.082,1.4 0.184,2.072 0.518,1.312 1.031,2.63 1.58,3.933 1.482,3.507 0.959,6.384 -1.805,9.014 -1.318,1.256 -1.995,2.769 -2.436,4.477 -0.779,3.03 -1.83,5.953 -3.748,8.481 -1.021,1.348 -2.154,2.584 -3.615,3.476 -0.2,0.118 -0.421,0.221 -0.41,0.518 0.041,1.415 -0.195,2.831 -0.077,4.241 0.277,0.205 0.574,0.107 0.851,0.113 3.733,0.071 7.466,0.051 11.189,0.225 4.097,0.195 8.194,0.344 12.291,0.236 3.651,-0.097 7.302,-0.256 10.952,-0.297 1.098,-0.011 2.185,0.287 3.374,0.113 0,-3.436 -0.087,-6.8 0.036,-10.158 0.062,-1.759 -0.292,-2.908 -1.897,-4.031 -3.512,-2.456 -5.502,-6.061 -6.317,-10.276 -0.395,-2.046 -0.077,-4.076 0.338,-6.086 0.118,-0.59 0.113,-1.221 0.313,-1.78 0.318,-0.876 -0.01,-1.343 -0.749,-1.764 -3.051,-1.738 -5.276,-4.204 -6.486,-7.537 -0.4,-1.098 -0.58,-2.226 -0.575,-3.395 0.011,-1.764 -0.112,-3.507 -0.892,-5.143 -0.189,-0.41 -0.395,-0.784 -0.728,-1.097 -1.384,-1.292 -2.748,-2.605 -3.6,-4.343 -0.082,-0.175 -0.184,-0.293 -0.415,-0.293 m -6.517,0.026 c -3.641,0.518 -7.21,-0.113 -10.886,0.236 0,1.036 0.005,2.077 0,3.117 0,0.231 0.159,0.303 0.323,0.39 1.579,0.877 2.748,2.185 3.769,3.636 0.953,1.353 2.43,1.728 3.907,2.102 0.051,0.01 0.108,0 0.154,-0.01 0.871,-0.221 2.646,-2.508 2.774,-3.4 0.292,-2 -0.139,-3.974 -0.041,-6.071 m -11.009,13.553 c 2.538,-0.811 4.871,-1.877 7.101,-3.328 -0.512,-0.18 -0.963,-0.313 -1.389,-0.493 -1,-0.425 -1.861,-0.974 -2.528,-1.902 -0.795,-1.118 -1.723,-2.159 -3.056,-2.995 0.02,2.974 -0.246,5.8 -0.128,8.718 m 0.005,4.481 v 1.605 c 1.03,-0.697 2.143,-1.102 2.928,-2.041 -0.944,0.298 -1.882,0.559 -2.928,0.436 m 6.656,-6.225 c -1.185,0.518 -2.185,1.169 -3.298,1.559 -1.128,0.4 -2.246,0.836 -3.374,1.256 v 2.738 c 2.754,0.267 5.185,-1.743 6.672,-5.553 m -6.702,15.711 c 3.322,-0.917 5.814,-2.876 7.953,-5.384 1.241,-1.451 1.507,-3.235 1.887,-4.994 0.559,-2.615 0.871,-5.266 1.061,-7.928 0.015,-0.159 0.005,-0.312 0.005,-0.543 -1.507,1.307 -2.994,2.507 -3.794,4.358 -0.58,1.349 -1.41,2.575 -2.231,3.795 -1.071,1.59 -2.512,2.733 -4.292,3.451 -0.277,0.113 -0.6,0.159 -0.594,0.61 0.015,2.179 0.005,4.359 0.005,6.635 m -0.626,-21.874 v -5.41 c -0.856,-0.036 -1.646,-0.195 -2.533,-0.031 0.082,9.589 -0.097,19.147 -0.138,28.833 0.887,-0.415 1.64,-0.774 2.399,-1.113 0.41,-0.184 0.262,-0.533 0.262,-0.82 0.01,-7.153 0.01,-14.306 0.01,-21.459 m -3.297,21.074 c 0,-8.542 -0.01,-17.085 -0.021,-25.628 v -0.974 c -4.05,0.513 -7.973,0.015 -11.891,-0.103 -0.112,0.518 -0.6,39.181 -0.497,40.094 0.713,-1.272 1.446,-2.405 2.354,-3.41 2.21,-2.446 5.009,-4.133 7.732,-5.912 0.744,-0.482 1.764,-0.769 2.2,-1.446 0.446,-0.682 0.123,-1.733 0.123,-2.621 m -12.994,-22.074 c -0.753,0.225 -1.456,0.497 -1.922,1.077 -1.047,1.292 -2.288,2.169 -3.657,2.779 -1.405,0.625 -2.943,0.969 -4.548,1.189 -1.63,0.226 -3.266,0.487 -4.579,1.667 -0.759,0.682 -1.323,1.477 -1.692,2.425 -0.415,1.072 -1.097,1.887 -2.154,2.39 -0.569,0.272 -1.102,0.625 -1.543,1.077 -0.964,0.984 -0.462,2.302 0.682,2.445 1.866,0.231 3.446,1.103 4.953,2.221 1.831,1.359 3.99,1.918 6.246,2.128 0.441,0.036 0.882,0.107 1.323,0.149 0.456,0.04 0.892,0.03 1.312,-0.026 1.985,-0.267 3.585,-1.518 5.261,-2.564 0.18,-0.108 0.216,-0.277 0.216,-0.472 -0.005,-1.466 -0.005,-2.933 -0.005,-4.507 h -4.831 c -0.184,0 -0.364,-0.005 -0.548,-0.005 -0.031,0 -0.062,0 -0.093,-0.005 -0.22,-0.005 -0.43,-0.067 -0.41,-0.349 0.016,-0.226 0.216,-0.251 0.41,-0.272 0.026,0 0.052,-0.005 0.077,-0.005 1.046,-0.113 2.092,-0.195 3.144,-0.159 0.733,0.026 1.456,-0.072 2.251,-0.19 0.005,-3.656 0.225,-7.291 0.107,-10.993 m -1.779,43.78 c -1.231,1.759 -2.097,3.682 -2.866,5.779 1.661,0.451 3.24,0.431 4.748,-0.251 1.918,-0.862 3.892,-1.513 5.963,-1.918 1.682,-0.328 3.39,-0.344 5.082,-0.513 5.707,-0.574 9.399,-3.733 11.501,-8.937 0.6,-1.482 1.093,-3 1.508,-4.538 0.467,-1.734 1.287,-3.236 2.6,-4.497 1.297,-1.246 2.02,-2.805 1.994,-4.631 -0.015,-0.954 -0.328,-1.856 -0.682,-2.733 -0.517,-1.287 -1.051,-2.569 -1.579,-3.861 -0.215,0.056 -0.21,0.241 -0.261,0.41 -0.903,3.19 -2.246,6.205 -3.892,9.071 -1.564,2.713 -3.882,4.748 -6.292,6.676 -2.584,2.072 -5.359,3.862 -8.245,5.492 -1.816,1.021 -3.451,2.297 -4.897,3.805 -0.149,0.159 -0.246,0.431 -0.59,0.343 -0.097,-0.369 0.149,-0.625 0.338,-0.892 1.241,-1.728 2.964,-2.882 4.749,-3.953 3.194,-1.928 6.225,-4.082 9.153,-6.4 3.758,-2.974 6.096,-6.871 7.789,-11.245 0.276,-0.702 0.523,-1.42 0.774,-2.138 0.015,-0.041 -0.005,-0.102 -0.016,-0.272 -0.84,0.775 -1.62,1.523 -2.394,2.257 -1.518,1.451 -3.323,2.358 -5.225,3.143 -4.369,1.81 -8.4,4.23 -12.112,7.117 -2.23,1.733 -3.841,4.005 -4.42,6.887 -0.436,2.143 -1.487,4.03 -2.728,5.799 m 17.865,3.071 c -0.815,0.19 -1.395,0.58 -2.077,0.672 -0.225,0.031 -0.236,0.246 -0.236,0.436 -0.005,1.656 -0.015,3.313 -0.015,4.969 0,0.523 0.323,0.636 0.784,0.641 3.205,0.03 6.415,0.01 9.615,0.133 3.707,0.139 7.42,-0.026 11.117,0.144 2.892,0.133 5.784,0.189 8.671,0.077 3.497,-0.134 6.989,0.133 10.481,0.035 0.359,-0.01 0.723,0 1.148,0 -0.041,-0.656 -0.082,-1.225 -0.118,-1.825 -1.358,-0.241 -2.722,-0.272 -4.076,-0.277 -2.605,-0.01 -5.21,-0.015 -7.81,0.067 -3.83,0.123 -7.665,0.066 -11.491,-0.072 -3.364,-0.128 -6.727,0.031 -10.086,-0.22 -1.487,-0.108 -2.989,0.082 -4.487,0.117 -1.061,0.026 -1.348,-0.179 -1.405,-1.215 -0.066,-1.2 -0.015,-2.405 -0.015,-3.682 m -14.583,20.911 c 11.019,-0.031 22.033,-0.061 33.053,-0.107 3.338,-0.011 6.681,-0.144 10.019,-0.098 6.302,0.092 12.604,0.282 18.911,0.421 1.287,0.03 2.575,0.035 3.867,0.025 1.128,-0.01 1.528,-0.389 1.497,-1.538 -0.113,-3.784 -0.267,-7.563 -0.405,-11.394 -2,-0.128 -4.005,-0.256 -6.03,-0.384 0.056,-0.534 0.441,-0.4 0.718,-0.405 1.758,-0.011 3.522,-0.006 5.317,-0.006 0.169,-0.615 0.072,-1.205 0.072,-1.871 -3.502,0.107 -6.907,-0.534 -10.348,-0.8 h 10.404 c 0.046,-0.041 -0.041,-0.292 -0.041,-0.508 0.005,-2.866 -0.005,-5.733 0.016,-8.594 0.005,-0.487 -0.159,-0.769 -0.57,-0.995 -1.584,-0.866 -3.343,-1.184 -5.071,-1.599 -2.087,-0.498 -4.271,-0.416 -6.43,-1.134 0.01,5.066 0.123,10.071 -0.046,15.112 1.179,0.441 2.528,0 3.712,0.6 -0.236,0.389 -0.559,0.225 -0.82,0.256 -1.887,0.21 -3.769,0.062 -5.656,0.02 -2.682,-0.056 -5.369,0.042 -8.045,-0.056 -2.995,-0.113 -5.984,-0.272 -8.984,-0.261 -7.256,0.025 -14.517,-0.021 -21.772,0.005 -1.698,0.005 -3.39,0.374 -5.097,0.164 -0.334,-0.041 -0.693,-0.021 -0.903,-0.523 1.344,-0.303 2.682,-0.38 4.097,-0.477 -0.195,-1.923 -0.148,-3.831 -0.133,-5.733 -4.118,0.262 -8.235,0.174 -11.968,2.22 -0.369,0.206 -0.544,0.385 -0.528,0.826 0.041,0.918 0.015,1.836 0.015,2.805 1.385,0.113 2.79,-0.159 4.077,0.528 -1.308,0.467 -2.677,0.174 -4.005,0.39 -0.077,2.666 -0.19,5.333 -0.215,8.004 -0.011,1.21 -0.18,2.41 -0.175,3.62 0.005,1.364 0.128,1.492 1.467,1.487 m 67.952,-0.938 c 0.995,-0.657 1.585,-1.503 2.302,-2.215 0.2,-0.2 0.103,-0.503 0.098,-0.759 -0.072,-2.759 -0.277,-5.523 -0.205,-8.276 0.087,-3.549 -0.093,-7.097 0.061,-10.645 0.031,-0.682 -0.138,-1.123 -0.769,-1.452 -0.569,-0.302 -1.082,-0.717 -1.795,-1.205 0.103,8.266 0.206,16.337 0.308,24.552 M 0.4,1.482 C 0.015,1.836 -0.4,2.179 -0.861,2.42 -3.477,3.795 -5.892,5.446 -8.148,7.358 -8.574,7.717 -9.015,8.04 -9.471,8.317 c -1.569,0.964 -3.328,1.446 -5.266,1.405 -0.482,-0.01 -0.949,-0.333 -1.42,-0.118 -0.17,0.59 0.077,0.8 0.615,0.959 1.205,0.354 2.41,0.754 3.476,1.436 0.975,0.62 1.841,1.328 2.595,2.123 1.482,1.543 2.549,3.405 3.225,5.558 0.934,2.974 2.446,5.62 4.436,8.004 0.646,0.78 1.092,1.657 1.328,2.646 0.303,1.246 -0.308,2.364 -1.554,2.544 -1.348,0.195 -2.692,0.374 -4.02,0.666 -0.666,0.144 -1.343,0.252 -2.015,0.303 -0.467,0.036 -0.933,0.077 -1.4,0.113 -2.215,0.153 -4.43,0.123 -6.62,-1.318 0.241,3.297 -0.02,6.317 0.159,9.337 0.077,1.339 0.19,2.677 0.144,4.015 -0.077,2.123 -0.19,4.246 0.056,6.369 0.072,0.605 -0.051,1.138 -0.533,1.569 -0.805,0.718 -1.579,1.472 -2.395,2.169 -0.769,0.661 -1.605,1.036 -2.702,0.995 -2.231,-0.092 -4.471,-0.185 -6.702,-0.164 -7.127,0.066 -14.255,-0.246 -21.382,-0.205 -8.23,0.046 -16.465,-0.052 -24.701,0.082 -4.363,0.066 -8.732,-0.011 -13.096,0.169 -1.159,0.051 -1.666,-0.523 -1.687,-1.641 -0.056,-2.733 0.287,-5.466 0.103,-8.194 -0.128,-1.954 0.041,-3.882 0.133,-5.825 0.041,-0.728 0.103,-1.467 -0.036,-2.179 -0.23,-0.118 -0.425,-0.011 -0.63,0.015 -1.231,0.138 -2.467,0.185 -3.672,-0.154 -0.379,-0.108 -0.769,-0.266 -0.913,-0.595 -0.071,-0.159 -0.082,-0.359 -0.005,-0.615 0,-0.005 0.005,-0.01 0.005,-0.015 0.595,-1.959 1.323,-3.862 2.441,-5.59 0.769,-1.189 1.585,-2.358 2.164,-3.661 0.328,-0.733 0.697,-1.461 0.708,-2.307 0.046,-3.261 0.118,-6.517 0.148,-9.779 0.026,-3.046 0.006,-6.091 0.006,-9.189 -0.165,0.052 -0.267,0.062 -0.354,0.108 -1.646,0.846 -3.343,1.39 -5.113,1.528 -0.907,0.077 -1.84,0.046 -2.794,-0.102 -2.236,-0.354 -4.482,-0.718 -6.394,-2.016 -1.657,-1.128 -3.333,-2.163 -5.272,-2.743 -0.841,-0.246 -1.21,-0.948 -1.241,-1.82 -0.041,-1.297 0.821,-2.015 1.775,-2.59 1.153,-0.697 1.917,-1.635 2.451,-2.866 0.841,-1.949 2.384,-3.159 4.394,-3.774 1.231,-0.379 2.492,-0.61 3.764,-0.779 1.184,-0.154 2.307,-0.426 3.317,-0.929 0.78,-0.384 1.488,-0.907 2.108,-1.62 0.846,-0.964 1.836,-1.718 3.051,-2.159 0.225,-0.082 0.451,-0.154 0.451,-0.466 -0.01,-1.098 -0.005,-2.195 -0.005,-3.292 -1.933,-0.246 -3.764,-0.421 -5.605,-0.364 -0.056,0 -0.107,0.005 -0.164,0.005 -0.307,0.015 -0.687,0.061 -0.759,-0.364 -0.082,-0.446 0.293,-0.569 0.616,-0.687 0.118,-0.047 0.251,-0.052 0.384,-0.072 3.508,-0.482 7.005,-0.287 10.466,0.272 0.041,0.005 0.087,0.015 0.128,0.02 2.159,0.349 4.313,0.641 6.492,0.585 5.307,-0.134 10.619,-0.118 15.921,-0.405 1.503,-0.082 2.995,0.112 4.487,0.184 2.836,0.139 5.656,-0.405 8.497,-0.036 1.687,0.216 3.399,-0.128 5.112,0.011 2.784,0.225 5.564,-0.103 8.343,-0.247 0.548,-0.025 1.097,-0.071 1.646,-0.112 1.061,-0.077 2.128,-0.134 3.189,0 0.016,0 0.031,0.005 0.046,0.005 4.067,0.523 8.138,0.938 12.245,0.83 0.185,-0.005 0.369,-0.01 0.549,0.016 2.41,0.39 4.82,0.231 7.23,0.046 0.015,0 0.031,0 0.046,-0.005 0.41,-0.026 0.918,-0.036 0.969,0.477 0.057,0.579 -0.477,0.574 -0.912,0.569 h -0.057 c -0.267,0 -0.543,-0.005 -0.81,-0.005 -1.99,-0.005 -3.984,-0.005 -6.061,-0.005 0,2.302 0.005,4.507 0,6.707 0,0.271 0.154,0.353 0.385,0.4 2.456,0.507 4.502,1.81 6.44,3.317 0.015,0.01 0.031,0.026 0.046,0.036 1.867,1.446 3.82,2.728 6.179,3.21 0.918,0.19 1.872,0.236 2.8,0.4 0.666,0.118 1.266,0.436 1.497,1.128 C 1.246,0.38 0.928,0.995 0.4,1.482"
             style="fill:#eac771;fill-opacity:1;fill-rule:nonzero;stroke:none"
             id="path102" />
        </g>
        <g
           id="g104"
           transform="translate(139.3434,134.7654)">
          <path
             d="m 0,0 c 3.084,-0.252 6.524,0.306 9.984,0.477 2.813,0.139 5.618,-0.129 8.424,-0.287 1.678,-0.095 3.36,-0.012 5.038,-0.197 1.563,-0.173 3.139,-0.233 4.708,-0.349 0.155,-0.012 0.306,-0.068 0.459,-0.105 0.289,-0.069 0.611,-0.147 0.558,-0.525 -0.046,-0.336 -0.34,-0.463 -0.65,-0.448 -0.916,0.044 -1.839,0.059 -2.746,0.178 -1.624,0.213 -3.254,0.174 -4.88,0.187 -3.154,0.025 -6.312,0.052 -9.463,-0.065 -4.835,-0.179 -9.67,-0.152 -14.506,-0.141 -1.022,0.002 -2.045,0.099 -3.067,0.152 -0.318,0.016 -0.591,0.112 -0.599,0.482 -0.008,0.39 0.282,0.432 0.594,0.467 1.913,0.21 3.834,0.1 6.146,0.174"
             style="fill:#eac771;fill-opacity:1;fill-rule:nonzero;stroke:none"
             id="path106" />
        </g>
        <g
           id="g108"
           transform="translate(149.9117,187.5696)">
          <path
             d="m 0,0 c -0.036,0.008 -0.066,0.03 -0.085,0.06 -0.02,0.031 -0.028,0.069 -0.02,0.105 0.017,0.061 0.072,0.105 0.135,0.105 0.011,0 0.022,0 0.033,-0.003 C 0.096,0.259 0.129,0.237 0.149,0.206 0.168,0.173 0.173,0.138 0.165,0.102 0.149,0.028 0.071,-0.019 0,0 m -2.521,-8.699 -0.263,0.081 2.469,8.033 0.263,-0.081 z M 6.387,1.728 C 6.362,1.756 6.351,1.791 6.351,1.827 6.354,1.863 6.37,1.899 6.395,1.923 6.422,1.945 6.455,1.959 6.488,1.959 6.527,1.959 6.566,1.943 6.59,1.915 6.615,1.888 6.629,1.852 6.626,1.816 6.626,1.778 6.61,1.745 6.582,1.72 6.527,1.67 6.439,1.673 6.387,1.728 M -0.848,0.253 c -0.278,0.102 -0.55,0.223 -0.809,0.358 -0.261,0.132 -0.517,0.286 -0.762,0.451 -0.03,0.019 -0.049,0.052 -0.058,0.088 -0.005,0.036 0.003,0.072 0.022,0.102 0.028,0.039 0.069,0.061 0.116,0.061 0.027,0 0.052,-0.009 0.077,-0.022 C -2.031,1.131 -1.783,0.985 -1.53,0.856 -1.282,0.727 -1.021,0.611 -0.754,0.512 -0.718,0.498 -0.691,0.473 -0.674,0.44 -0.661,0.407 -0.658,0.369 -0.672,0.336 -0.696,0.267 -0.779,0.228 -0.848,0.253 M 2.636,-0.129 C 2.353,-0.168 2.058,-0.19 1.766,-0.193 H 1.753 1.668 C 1.4,-0.193 1.131,-0.179 0.872,-0.151 0.834,-0.146 0.801,-0.129 0.779,-0.099 0.757,-0.072 0.746,-0.036 0.748,0 0.757,0.077 0.823,0.132 0.9,0.124 1.18,0.094 1.472,0.077 1.75,0.083 c 0.286,0.002 0.572,0.024 0.85,0.06 0.006,0 0.011,0.003 0.017,0.003 0.069,0 0.129,-0.052 0.138,-0.121 C 2.763,-0.05 2.71,-0.118 2.636,-0.129 m 0.867,0.17 C 3.431,0.022 3.354,0.066 3.335,0.138 3.327,0.173 3.332,0.212 3.352,0.242 3.368,0.275 3.398,0.297 3.434,0.305 3.445,0.311 3.459,0.311 3.47,0.311 3.533,0.311 3.588,0.27 3.602,0.209 3.613,0.173 3.607,0.135 3.588,0.105 3.569,0.071 3.539,0.049 3.503,0.041 m 1.643,0.65 C 4.887,0.55 4.617,0.424 4.345,0.316 4.276,0.289 4.194,0.325 4.166,0.393 4.138,0.462 4.174,0.545 4.243,0.572 4.502,0.674 4.76,0.795 5.014,0.933 5.261,1.068 5.503,1.222 5.734,1.387 5.759,1.403 5.787,1.412 5.814,1.412 5.858,1.412 5.902,1.39 5.927,1.354 5.971,1.293 5.957,1.205 5.897,1.161 5.655,0.991 5.401,0.831 5.146,0.691 M -4.945,4.397 c -0.069,-0.024 -0.151,0.011 -0.179,0.08 -0.014,0.036 -0.014,0.072 0.003,0.107 0.014,0.033 0.041,0.058 0.077,0.072 0.017,0.005 0.033,0.008 0.049,0.008 0.056,0 0.108,-0.036 0.127,-0.088 C -4.84,4.505 -4.876,4.425 -4.945,4.397 m 1.827,-2.793 c -0.027,0.022 -0.044,0.058 -0.047,0.094 -0.002,0.036 0.012,0.071 0.036,0.099 0.025,0.03 0.064,0.047 0.102,0.047 0.033,0 0.066,-0.011 0.091,-0.033 0.058,-0.05 0.063,-0.138 0.014,-0.196 C -2.972,1.56 -3.063,1.555 -3.118,1.604 M -5.223,5.223 C -5.294,5.204 -5.371,5.25 -5.388,5.322 -5.46,5.605 -5.512,5.9 -5.548,6.191 -5.583,6.483 -5.603,6.78 -5.603,7.075 c 0,0.077 0.064,0.137 0.138,0.137 0.077,0 0.138,-0.06 0.138,-0.137 0,-0.286 0.019,-0.573 0.052,-0.851 C -5.239,5.941 -5.19,5.66 -5.121,5.388 -5.113,5.352 -5.118,5.316 -5.138,5.283 -5.157,5.253 -5.187,5.231 -5.223,5.223 m 3.156,-5.025 c 0.028,0 0.055,-0.008 0.077,-0.025 0.031,-0.019 0.053,-0.052 0.058,-0.088 0.006,-0.036 -0.003,-0.071 -0.025,-0.102 l -0.996,-1.422 c -0.041,-0.061 -0.129,-0.077 -0.19,-0.036 -0.03,0.022 -0.052,0.052 -0.057,0.091 -0.006,0.036 0.002,0.071 0.024,0.102 l 0.997,1.422 c 0.024,0.036 0.066,0.058 0.112,0.058 m -1.574,-2.383 c -0.03,0.019 -0.049,0.052 -0.057,0.088 -0.006,0.036 0.002,0.072 0.022,0.102 0.027,0.039 0.068,0.06 0.112,0.06 0.031,0 0.058,-0.008 0.08,-0.024 0.061,-0.044 0.077,-0.13 0.033,-0.193 -0.041,-0.06 -0.132,-0.074 -0.19,-0.033 M -3.745,2.223 C -3.943,2.444 -4.128,2.677 -4.296,2.917 -4.463,3.156 -4.62,3.412 -4.758,3.674 -4.794,3.74 -4.766,3.822 -4.7,3.858 c 0.019,0.011 0.041,0.016 0.063,0.016 0.053,0 0.099,-0.027 0.124,-0.074 0.129,-0.245 0.278,-0.487 0.44,-0.721 L -4.07,3.074 C -3.908,2.843 -3.729,2.617 -3.542,2.408 -3.492,2.353 -3.495,2.265 -3.553,2.215 -3.608,2.166 -3.698,2.171 -3.745,2.223 M 8.761,5.492 C 8.748,5.418 8.671,5.371 8.599,5.388 8.525,5.404 8.478,5.479 8.495,5.55 8.555,5.825 8.599,6.109 8.627,6.392 8.649,6.618 8.66,6.849 8.66,7.075 c 0,0.077 0.063,0.137 0.137,0.137 0.077,0 0.138,-0.06 0.138,-0.137 0,-0.24 -0.011,-0.479 -0.033,-0.71 C 8.872,6.07 8.827,5.776 8.761,5.492 m 3.358,1.445 c -0.077,0 -0.138,0.063 -0.138,0.138 0,0.077 0.061,0.137 0.138,0.137 0.074,0 0.137,-0.06 0.137,-0.137 0,-0.075 -0.063,-0.138 -0.137,-0.138 m 2.603,0 h -1.737 c -0.074,0 -0.137,0.063 -0.137,0.138 0,0.077 0.063,0.137 0.137,0.137 h 1.737 c 0.077,0 0.137,-0.06 0.137,-0.137 0,-0.075 -0.06,-0.138 -0.137,-0.138 M 9.234,4.47 9.262,4.743 16.305,4.011 16.276,3.737 Z m 8.963,2.467 h -1.736 c -0.077,0 -0.138,0.063 -0.138,0.138 0,0.077 0.061,0.137 0.138,0.137 h 1.736 c 0.077,0 0.138,-0.06 0.138,-0.137 0,-0.075 -0.061,-0.138 -0.138,-0.138 m -2.606,0 c -0.074,0 -0.137,0.063 -0.137,0.138 0,0.077 0.063,0.137 0.137,0.137 0.077,0 0.138,-0.06 0.138,-0.137 0,-0.075 -0.061,-0.138 -0.138,-0.138 m -4.342,0 H 9.513 C 9.436,6.937 9.375,7 9.375,7.075 c 0,0.077 0.061,0.137 0.138,0.137 h 1.736 c 0.077,0 0.138,-0.06 0.138,-0.137 C 11.387,7 11.326,6.937 11.249,6.937 M 7.119,-1.877 C 7.141,-1.907 7.149,-1.943 7.143,-1.978 7.138,-2.014 7.119,-2.047 7.089,-2.069 7.031,-2.111 6.94,-2.097 6.896,-2.039 c -0.044,0.063 -0.031,0.149 0.03,0.193 0.025,0.016 0.052,0.027 0.083,0.027 0.044,0 0.085,-0.022 0.11,-0.058 M 6.387,-1.335 5.366,0.069 c -0.044,0.063 -0.03,0.148 0.03,0.192 0.025,0.02 0.052,0.028 0.08,0.028 0.044,0 0.085,-0.022 0.113,-0.058 L 6.61,-1.175 C 6.632,-1.203 6.64,-1.241 6.634,-1.277 6.629,-1.313 6.61,-1.346 6.579,-1.365 6.519,-1.409 6.431,-1.395 6.387,-1.335 M 3.649,-0.582 3.908,-0.49 6.726,-8.41 6.467,-8.502 Z m 4.87,5.224 C 8.495,4.571 8.412,4.532 8.343,4.557 8.277,4.582 8.241,4.65 8.255,4.717 H 8.252 L 8.258,4.733 C 8.277,4.788 8.332,4.827 8.39,4.827 8.404,4.827 8.42,4.824 8.434,4.818 8.506,4.791 8.544,4.714 8.519,4.642 m -21.45,-0.996 6.973,0.902 0.035,-0.273 -6.973,-0.902 z M 7.729,3.063 C 7.567,2.818 7.385,2.578 7.196,2.355 7.149,2.3 7.058,2.292 7.003,2.342 6.976,2.367 6.956,2.399 6.954,2.435 6.954,2.463 6.959,2.49 6.97,2.512 H 6.967 l 0.02,0.022 c 0.178,0.209 0.352,0.438 0.511,0.68 0.157,0.234 0.3,0.481 0.427,0.737 0.025,0.047 0.072,0.075 0.124,0.075 0.022,0 0.041,-0.003 0.06,-0.014 C 8.178,3.979 8.206,3.896 8.173,3.828 8.041,3.566 7.892,3.31 7.729,3.063 M 8.382,2.887 9.997,2.245 C 10.066,2.218 10.101,2.138 10.074,2.066 10.047,2.001 9.964,1.962 9.895,1.99 L 8.28,2.631 C 8.244,2.644 8.217,2.669 8.203,2.705 8.189,2.738 8.189,2.774 8.203,2.81 8.222,2.862 8.272,2.895 8.33,2.895 8.346,2.895 8.365,2.892 8.382,2.887 M -11.601,0.201 c 0.057,0 0.107,-0.033 0.126,-0.085 0.03,-0.072 -0.005,-0.152 -0.074,-0.179 l -1.613,-0.65 c -0.068,-0.027 -0.151,0.009 -0.178,0.077 -0.028,0.072 0.005,0.152 0.077,0.179 l 1.609,0.65 c 0.017,0.005 0.033,0.008 0.053,0.008 M 7.518,-2.523 c 0.044,0 0.085,-0.02 0.113,-0.055 l 1.02,-1.407 c 0.045,-0.06 0.031,-0.148 -0.03,-0.192 -0.06,-0.041 -0.149,-0.028 -0.193,0.03 l -1.02,1.406 c -0.044,0.061 -0.031,0.146 0.03,0.193 0.025,0.016 0.052,0.025 0.08,0.025 M 9.05,-4.631 c 0.044,0 0.086,-0.019 0.11,-0.055 C 9.182,-4.717 9.191,-4.752 9.185,-4.791 9.18,-4.827 9.16,-4.857 9.13,-4.879 c -0.057,-0.044 -0.148,-0.03 -0.192,0.03 -0.02,0.031 -0.031,0.067 -0.025,0.102 0.008,0.036 0.027,0.069 0.058,0.091 0.022,0.017 0.049,0.025 0.079,0.025 m -7.415,0.465 h 0.002 c 0.075,0 0.138,-0.061 0.138,-0.138 L 1.783,-6.04 c 0,-0.074 -0.06,-0.138 -0.137,-0.138 -0.078,0 -0.138,0.061 -0.138,0.138 L 1.5,-4.304 c 0,0.075 0.06,0.138 0.135,0.138 m 0.019,-3.476 c 0.077,0 0.137,-0.06 0.137,-0.134 L 1.799,-9.513 C 1.802,-9.551 1.788,-9.584 1.761,-9.612 1.684,-9.689 1.527,-9.628 1.524,-9.516 l -0.008,1.737 c 0,0.038 0.014,0.071 0.041,0.099 0.025,0.025 0.061,0.038 0.097,0.038 m 7.908,2.309 c 0.044,0 0.086,-0.022 0.11,-0.058 l 1.021,-1.403 c 0.022,-0.03 0.031,-0.066 0.025,-0.105 -0.005,-0.035 -0.025,-0.066 -0.055,-0.088 -0.061,-0.044 -0.149,-0.03 -0.193,0.031 L 9.449,-5.55 c -0.021,0.027 -0.03,0.066 -0.024,0.101 0.005,0.036 0.024,0.067 0.055,0.089 0.024,0.019 0.052,0.027 0.082,0.027 M 1.648,-6.772 h 0.003 c 0.074,0 0.135,-0.061 0.137,-0.138 0,-0.074 -0.063,-0.137 -0.137,-0.137 -0.077,0 -0.138,0.06 -0.138,0.137 -0.002,0.075 0.061,0.138 0.135,0.138 m -0.016,3.475 c 0.077,0 0.137,-0.063 0.137,-0.137 0,-0.036 -0.014,-0.072 -0.038,-0.099 -0.077,-0.077 -0.237,-0.017 -0.237,0.096 0,0.039 0.014,0.072 0.041,0.099 0.025,0.025 0.058,0.041 0.097,0.041 M 14.79,0.338 c 0.017,0 0.034,-0.002 0.05,-0.011 l 1.615,-0.638 c 0.036,-0.014 0.061,-0.038 0.077,-0.072 0.014,-0.035 0.014,-0.071 0,-0.107 -0.024,-0.069 -0.107,-0.104 -0.178,-0.077 L 14.741,0.074 C 14.705,0.085 14.678,0.113 14.664,0.146 14.65,0.179 14.647,0.217 14.661,0.25 14.683,0.305 14.733,0.338 14.79,0.338 M 10.702,1.67 c -0.034,0.014 -0.061,0.042 -0.075,0.075 -0.016,0.033 -0.016,0.071 -0.003,0.104 0.022,0.053 0.072,0.088 0.127,0.088 0.019,0 0.036,-0.003 0.052,-0.011 C 10.875,1.899 10.908,1.819 10.88,1.747 10.853,1.679 10.773,1.643 10.702,1.67 m 6.51,-2.292 c 0.019,0 0.036,-0.003 0.052,-0.008 0.033,-0.014 0.061,-0.039 0.075,-0.074 0.016,-0.034 0.016,-0.069 0.002,-0.105 -0.027,-0.069 -0.11,-0.105 -0.179,-0.077 -0.071,0.027 -0.104,0.107 -0.077,0.179 0.02,0.052 0.072,0.085 0.127,0.085 m -3.228,1.28 c 0.017,0 0.033,-0.003 0.05,-0.009 0.069,-0.03 0.104,-0.11 0.077,-0.178 -0.028,-0.069 -0.11,-0.105 -0.179,-0.078 -0.033,0.014 -0.061,0.039 -0.074,0.072 -0.017,0.036 -0.017,0.072 -0.003,0.107 0.022,0.053 0.071,0.086 0.129,0.086 M 13.126,0.713 11.51,1.351 C 11.475,1.365 11.447,1.39 11.433,1.425 11.42,1.458 11.42,1.497 11.431,1.53 c 0.022,0.052 0.071,0.088 0.129,0.088 0.017,0 0.033,-0.006 0.05,-0.011 l 1.615,-0.638 c 0.036,-0.014 0.063,-0.042 0.077,-0.075 0.014,-0.033 0.014,-0.071 0,-0.104 C 13.274,0.721 13.194,0.685 13.126,0.713 M 7.222,1.468 13.58,-3.223 13.416,-3.445 7.058,1.246 Z M 1.618,-0.693 c 0.077,0 0.137,-0.061 0.137,-0.135 l 0.011,-1.739 c 0,-0.075 -0.063,-0.138 -0.137,-0.138 -0.077,0 -0.138,0.061 -0.138,0.138 L 1.48,-0.831 c 0,0.039 0.014,0.071 0.042,0.099 0.024,0.025 0.06,0.039 0.096,0.039 m -12.465,1.208 c 0.016,0.008 0.035,0.011 0.052,0.011 0.055,0 0.107,-0.033 0.126,-0.086 0.014,-0.036 0.014,-0.074 0,-0.107 -0.016,-0.033 -0.041,-0.058 -0.077,-0.072 -0.068,-0.03 -0.151,0.006 -0.178,0.075 -0.014,0.036 -0.011,0.071 0.002,0.107 0.014,0.033 0.042,0.058 0.075,0.072 m -3.008,6.422 h -1.736 c -0.075,0 -0.138,0.063 -0.138,0.138 0,0.077 0.063,0.137 0.138,0.137 h 1.736 c 0.077,0 0.138,-0.06 0.138,-0.137 0,-0.075 -0.061,-0.138 -0.138,-0.138 m 3.814,-6.098 1.612,0.647 c 0.017,0.008 0.033,0.011 0.05,0.011 0.058,0 0.107,-0.033 0.129,-0.085 C -8.222,1.34 -8.255,1.26 -8.327,1.23 L -9.939,0.583 c -0.069,-0.027 -0.152,0.009 -0.179,0.077 -0.028,0.072 0.008,0.152 0.077,0.179 m -2.945,6.098 c -0.074,0 -0.137,0.063 -0.137,0.138 0,0.077 0.063,0.137 0.137,0.137 0.078,0 0.138,-0.06 0.138,-0.137 0,-0.075 -0.06,-0.138 -0.138,-0.138 m 3.476,0 c -0.077,0 -0.138,0.063 -0.138,0.138 0,0.077 0.061,0.137 0.138,0.137 0.074,0 0.138,-0.06 0.138,-0.137 C -9.372,7 -9.436,6.937 -9.51,6.937 m -0.87,0 h -1.736 c -0.077,0 -0.138,0.063 -0.138,0.138 0,0.077 0.061,0.137 0.138,0.137 h 1.736 c 0.077,0 0.138,-0.06 0.138,-0.137 0,-0.075 -0.061,-0.138 -0.138,-0.138 M -5.556,-4.78 c 0.028,0 0.055,-0.008 0.08,-0.025 0.061,-0.044 0.077,-0.129 0.033,-0.192 -0.041,-0.061 -0.132,-0.077 -0.19,-0.033 -0.03,0.019 -0.052,0.052 -0.058,0.088 -0.005,0.036 0.003,0.071 0.022,0.102 0.025,0.038 0.069,0.06 0.113,0.06 M -6.904,6.937 h -1.739 c -0.075,0 -0.138,0.063 -0.138,0.138 0,0.077 0.063,0.137 0.138,0.137 h 1.739 c 0.074,0 0.137,-0.06 0.137,-0.137 C -6.767,7 -6.83,6.937 -6.904,6.937 M -6.167,-5.55 c 0.028,0.036 0.069,0.058 0.113,0.058 0.028,0 0.055,-0.009 0.08,-0.025 0.03,-0.022 0.049,-0.053 0.055,-0.088 0.008,-0.039 0,-0.075 -0.022,-0.105 l -0.996,-1.422 c -0.042,-0.058 -0.132,-0.075 -0.193,-0.034 -0.03,0.023 -0.049,0.053 -0.055,0.091 -0.008,0.036 0,0.072 0.022,0.102 z m 1.993,2.845 c 0.027,0.036 0.068,0.058 0.112,0.058 0.031,0 0.055,-0.008 0.08,-0.025 0.03,-0.022 0.05,-0.052 0.058,-0.088 0.005,-0.036 -0.003,-0.074 -0.025,-0.102 l -0.996,-1.425 c -0.041,-0.058 -0.132,-0.075 -0.193,-0.033 -0.027,0.022 -0.049,0.052 -0.055,0.091 -0.005,0.035 0.003,0.071 0.022,0.101 z M -5.102,2.526 -6.714,1.879 c -0.069,-0.027 -0.152,0.009 -0.179,0.077 -0.028,0.069 0.005,0.149 0.077,0.179 l 1.61,0.647 c 0.016,0.005 0.035,0.011 0.052,0.011 0.058,0 0.107,-0.036 0.127,-0.088 0.013,-0.033 0.013,-0.072 0,-0.105 C -5.041,2.567 -5.069,2.54 -5.102,2.526 M -7.699,1.632 c -0.028,0.068 0.005,0.151 0.077,0.179 0.016,0.005 0.033,0.011 0.049,0.011 0.058,0 0.107,-0.036 0.129,-0.088 C -7.416,1.665 -7.449,1.582 -7.521,1.555 -7.589,1.527 -7.672,1.563 -7.699,1.632 m 4.103,-0.584 -6.173,-4.893 -0.171,0.215 6.173,4.894 z"
             style="fill:#eac771;fill-opacity:1;fill-rule:nonzero;stroke:none"
             id="path110" />
        </g>
        <g
           id="g112"
           transform="translate(370.6761,125.2754)">
          <path
             d="M 0,0 H 1.705 V -12.98 H 0 v 5.841 H -6.304 V -12.98 H -8.031 V 0 h 1.727 V -5.507 H 0 Z"
             style="fill:#034045;fill-opacity:1;fill-rule:nonzero;stroke:none"
             id="path114" />
        </g>
        <g
           id="g116"
           transform="translate(377.6177,115.1962)">
          <path
             d="m 0,0 c 0.958,-0.97 2.148,-1.454 3.57,-1.454 1.421,0 2.611,0.484 3.569,1.454 0.958,0.972 1.437,2.168 1.437,3.589 0,1.433 -0.479,2.635 -1.437,3.607 C 6.181,8.165 4.991,8.65 3.57,8.65 2.148,8.65 0.958,8.165 0,7.196 -0.958,6.224 -1.437,5.022 -1.437,3.589 -1.437,2.168 -0.958,0.972 0,0 M 8.345,-1.177 C 7.039,-2.487 5.448,-3.141 3.57,-3.141 c -1.879,0 -3.468,0.654 -4.766,1.964 -1.298,1.31 -1.947,2.899 -1.947,4.766 0,1.879 0.649,3.47 1.947,4.774 1.298,1.304 2.887,1.957 4.766,1.957 1.878,0 3.469,-0.653 4.775,-1.957 C 9.649,7.059 10.3,5.468 10.3,3.589 10.3,1.722 9.649,0.133 8.345,-1.177"
             style="fill:#034045;fill-opacity:1;fill-rule:nonzero;stroke:none"
             id="path118" />
        </g>
        <g
           id="g120"
           transform="translate(397.5612,125.2754)">
          <path
             d="M 0,0 V -1.632 H -3.839 V -12.98 h -1.705 v 11.348 h -3.82 V 0 Z"
             style="fill:#034045;fill-opacity:1;fill-rule:nonzero;stroke:none"
             id="path122" />
        </g>
        <g
           id="g124"
           transform="translate(400.9919,113.9275)">
          <path
             d="m 0,0 h 6.025 v -1.632 h -7.751 v 12.98 H 5.933 V 9.716 H 0 V 5.73 H 5.47 V 4.115 H 0 Z"
             style="fill:#034045;fill-opacity:1;fill-rule:nonzero;stroke:none"
             id="path126" />
        </g>
        <g
           id="g128"
           transform="translate(410.821,113.9275)">
          <path
             d="m 0,0 h 5.599 v -1.632 h -7.325 v 12.98 H 0 Z"
             style="fill:#034045;fill-opacity:1;fill-rule:nonzero;stroke:none"
             id="path130" />
        </g>
        <g
           id="g132"
           transform="translate(425.4687,115.1512)">
          <path
             d="m 0,0 h 5.192 v -2.856 h -8.159 v 12.98 H 5.098 V 7.268 H 0 V 5.118 H 4.635 V 2.299 L 0,2.299 Z"
             style="fill:#034045;fill-opacity:1;fill-rule:nonzero;stroke:none"
             id="path134" />
        </g>
        <g
           id="g136"
           transform="translate(438.4294,112.0352)">
          <path
             d="m 0,0 c -1.941,0 -3.55,0.647 -4.83,1.937 -1.279,1.292 -1.918,2.897 -1.918,4.813 0,1.916 0.639,3.519 1.918,4.811 1.28,1.292 2.889,1.939 4.83,1.939 1.163,0 2.238,-0.27 3.227,-0.807 0.99,-0.538 1.768,-1.271 2.337,-2.197 L 3.005,9.012 C 2.719,9.518 2.313,9.911 1.781,10.189 1.249,10.468 0.655,10.607 0,10.607 -1.149,10.607 -2.066,10.255 -2.752,9.549 -3.439,8.846 -3.783,7.911 -3.783,6.75 -3.783,5.587 -3.439,4.654 -2.752,3.951 -2.066,3.245 -1.149,2.893 0,2.893 c 0.655,0 1.251,0.143 1.791,0.426 0.537,0.284 0.942,0.675 1.214,1.169 L 5.564,3.005 C 5.006,2.078 4.234,1.345 3.245,0.807 2.256,0.27 1.175,0 0,0"
             style="fill:#034045;fill-opacity:1;fill-rule:nonzero;stroke:none"
             id="path138" />
        </g>
        <g
           id="g140"
           transform="translate(448.6923,116.0035)">
          <path
             d="M 0,0 C 0.723,-0.717 1.623,-1.075 2.698,-1.075 3.773,-1.075 4.672,-0.717 5.395,0 6.119,0.717 6.48,1.644 6.48,2.782 6.48,3.919 6.119,4.846 5.395,5.564 4.672,6.279 3.773,6.639 2.698,6.639 1.623,6.639 0.723,6.279 0,5.564 -0.723,4.846 -1.085,3.919 -1.085,2.782 -1.085,1.644 -0.723,0.717 0,0 m 7.481,-2.021 c -1.31,-1.298 -2.905,-1.947 -4.783,-1.947 -1.879,0 -3.474,0.649 -4.784,1.947 -1.31,1.298 -1.964,2.899 -1.964,4.803 0,1.904 0.654,3.505 1.964,4.803 1.31,1.298 2.905,1.947 4.784,1.947 1.878,0 3.473,-0.649 4.783,-1.947 1.312,-1.298 1.967,-2.899 1.967,-4.803 0,-1.904 -0.655,-3.505 -1.967,-4.803"
             style="fill:#034045;fill-opacity:1;fill-rule:nonzero;stroke:none"
             id="path142" />
        </g>
        <g
           id="g144"
           transform="translate(467.7815,125.2754)">
          <path
             d="M 0,0 V -2.856 H -3.337 V -12.98 H -6.304 V -2.856 H -9.641 V 0 Z"
             style="fill:#034045;fill-opacity:1;fill-rule:nonzero;stroke:none"
             id="path146" />
        </g>
        <g
           id="g148"
           transform="translate(477.5909,113.2413)">
          <path
             d="m 0,0 c -0.94,-0.803 -2.139,-1.206 -3.597,-1.206 -1.458,0 -2.659,0.403 -3.597,1.206 -0.94,0.803 -1.409,1.884 -1.409,3.245 v 8.789 h 2.965 V 3.503 c 0,-1.21 0.681,-1.816 2.041,-1.816 1.359,0 2.039,0.606 2.039,1.816 v 8.531 H 1.409 V 3.245 C 1.409,1.884 0.938,0.803 0,0"
             style="fill:#034045;fill-opacity:1;fill-rule:nonzero;stroke:none"
             id="path150" />
        </g>
        <g
           id="g152"
           transform="translate(484.0986,122.4937)">
          <path
             d="m 0,0 v -3.337 h 2.225 c 0.408,0 0.756,0.16 1.047,0.481 0.29,0.323 0.436,0.717 0.436,1.187 0,0.471 -0.146,0.866 -0.436,1.186 C 2.981,-0.16 2.633,0 2.225,0 Z M 3.857,-10.198 1.406,-5.933 H 0 v -4.265 h -2.967 v 12.98 h 5.192 c 1.235,0 2.287,-0.434 3.153,-1.298 0.864,-0.866 1.296,-1.916 1.296,-3.153 0,-0.792 -0.219,-1.523 -0.657,-2.198 -0.44,-0.672 -1.016,-1.196 -1.734,-1.566 l 2.762,-4.765 z"
             style="fill:#034045;fill-opacity:1;fill-rule:nonzero;stroke:none"
             id="path154" />
        </g>
        <path
           d="m 492.536,112.295 h 2.967 v 12.98 h -2.967 z m 1.298,16.689 h 3.337 l -2.151,-2.596 h -2.67 z"
           style="fill:#034045;fill-opacity:1;fill-rule:nonzero;stroke:none"
           id="path156" />
        <g
           id="g158"
           transform="translate(502.0852,112.0352)">
          <path
             d="m 0,0 c -1.323,0 -2.426,0.287 -3.31,0.862 -0.883,0.575 -1.511,1.357 -1.882,2.346 l 2.559,1.484 c 0.52,-1.199 1.427,-1.799 2.725,-1.799 1.175,0 1.763,0.352 1.763,1.058 0,0.383 -0.189,0.682 -0.567,0.899 -0.377,0.215 -1.085,0.465 -2.123,0.751 -0.543,0.148 -1.02,0.314 -1.427,0.5 -0.408,0.186 -0.807,0.43 -1.196,0.733 -0.389,0.301 -0.686,0.682 -0.89,1.14 -0.205,0.457 -0.307,0.983 -0.307,1.575 0,1.199 0.431,2.159 1.289,2.874 0.86,0.718 1.882,1.077 3.069,1.077 1.063,0 2.004,-0.252 2.819,-0.752 C 3.337,12.247 3.98,11.522 4.451,10.57 L 1.947,9.106 c -0.235,0.492 -0.526,0.868 -0.872,1.12 -0.346,0.254 -0.803,0.381 -1.372,0.381 -0.444,0 -0.788,-0.096 -1.028,-0.287 -0.241,-0.192 -0.362,-0.425 -0.362,-0.696 0,-0.321 0.151,-0.6 0.453,-0.835 C -0.931,8.554 -0.303,8.294 0.649,8.011 1.169,7.851 1.57,7.72 1.855,7.622 2.139,7.522 2.5,7.358 2.938,7.129 3.378,6.901 3.712,6.66 3.941,6.406 4.17,6.154 4.373,5.82 4.553,5.405 4.731,4.991 4.821,4.518 4.821,3.988 4.821,2.75 4.377,1.777 3.486,1.067 2.596,0.356 1.435,0 0,0"
             style="fill:#034045;fill-opacity:1;fill-rule:nonzero;stroke:none"
             id="path160" />
        </g>
        <g
           id="g162"
           transform="translate(516.6411,125.2754)">
          <path
             d="M 0,0 V -2.856 H -3.337 V -12.98 H -6.304 V -2.856 H -9.641 V 0 Z"
             style="fill:#034045;fill-opacity:1;fill-rule:nonzero;stroke:none"
             id="path164" />
        </g>
        <path
           d="m 517.939,125.275 h 2.967 v -12.98 h -2.967 z"
           style="fill:#034045;fill-opacity:1;fill-rule:nonzero;stroke:none"
           id="path166" />
        <g
           id="g168"
           transform="translate(529.3222,112.0352)">
          <path
             d="m 0,0 c -1.941,0 -3.55,0.647 -4.83,1.937 -1.279,1.292 -1.918,2.897 -1.918,4.813 0,1.916 0.639,3.519 1.918,4.811 1.28,1.292 2.889,1.939 4.83,1.939 1.163,0 2.238,-0.27 3.227,-0.807 0.99,-0.538 1.768,-1.271 2.337,-2.197 L 3.005,9.012 C 2.719,9.518 2.313,9.911 1.781,10.189 1.249,10.468 0.655,10.607 0,10.607 -1.149,10.607 -2.066,10.255 -2.752,9.549 -3.439,8.846 -3.783,7.911 -3.783,6.75 -3.783,5.587 -3.439,4.654 -2.752,3.951 -2.066,3.245 -1.149,2.893 0,2.893 c 0.655,0 1.251,0.143 1.791,0.426 0.537,0.284 0.942,0.675 1.214,1.169 L 5.564,3.005 C 5.006,2.078 4.234,1.345 3.245,0.807 2.256,0.27 1.175,0 0,0"
             style="fill:#034045;fill-opacity:1;fill-rule:nonzero;stroke:none"
             id="path170" />
        </g>
        <g
           id="g172"
           transform="translate(539.5872,116.0035)">
          <path
             d="M 0,0 C 0.723,-0.717 1.622,-1.075 2.698,-1.075 3.773,-1.075 4.672,-0.717 5.395,0 6.119,0.717 6.48,1.644 6.48,2.782 6.48,3.919 6.119,4.846 5.395,5.564 4.672,6.279 3.773,6.639 2.698,6.639 1.622,6.639 0.723,6.279 0,5.564 -0.723,4.846 -1.085,3.919 -1.085,2.782 -1.085,1.644 -0.723,0.717 0,0 m 7.481,-2.021 c -1.31,-1.298 -2.905,-1.947 -4.783,-1.947 -1.879,0 -3.474,0.649 -4.784,1.947 -1.31,1.298 -1.964,2.899 -1.964,4.803 0,1.904 0.654,3.505 1.964,4.803 1.31,1.298 2.905,1.947 4.784,1.947 1.878,0 3.473,-0.649 4.783,-1.947 1.312,-1.298 1.967,-2.899 1.967,-4.803 0,-1.904 -0.655,-3.505 -1.967,-4.803"
             style="fill:#034045;fill-opacity:1;fill-rule:nonzero;stroke:none"
             id="path174" />
        </g>
        <g
           id="g176"
           transform="translate(503.1764,110.5796)">
          <path
             d="m 0,0 h -6.839 l -2.82,-5.112 h 5.57 z m -25.593,-22.74 2.467,8.391 2.503,-8.391 z m -1.376,15.689 -8.144,-24.678 h 6.84 l 1.058,3.561 h 8.214 l 1.057,-3.561 h 6.805 l -8.144,24.678 z m 43.045,-12.075 c -0.869,0.575 -1.669,1.016 -2.398,1.322 -0.728,0.305 -1.692,0.635 -2.89,0.987 -1.669,0.494 -2.791,0.928 -3.367,1.304 -0.576,0.377 -0.863,0.835 -0.863,1.375 0,0.47 0.193,0.858 0.581,1.164 0.388,0.305 0.957,0.458 1.71,0.458 1.786,0 3.067,-0.916 3.843,-2.75 l 5.287,3.103 c -0.846,1.833 -2.067,3.231 -3.666,4.195 -1.598,0.964 -3.431,1.445 -5.499,1.445 -2.445,0 -4.483,-0.705 -6.116,-2.115 -1.635,-1.41 -2.451,-3.256 -2.451,-5.534 0,-2.116 0.658,-3.767 1.974,-4.954 1.316,-1.187 3.103,-2.11 5.359,-2.767 1.598,-0.447 2.632,-0.765 3.102,-0.952 1.105,-0.447 1.657,-1.035 1.657,-1.763 0,-1.105 -0.963,-1.657 -2.891,-1.657 -2.326,0 -3.948,1.093 -4.864,3.278 l -5.394,-3.137 c 0.681,-1.88 1.879,-3.373 3.595,-4.478 1.716,-1.104 3.879,-1.656 6.487,-1.656 2.82,0 5.089,0.681 6.804,2.044 1.715,1.364 2.574,3.255 2.574,5.677 0,1.221 -0.211,2.285 -0.635,3.191 -0.422,0.904 -1.07,1.643 -1.939,2.22 M -9.342,-31.729 h 6.311 v 24.678 h -6.311 z m 47.029,7.527 c -1.269,-1.258 -2.856,-1.886 -4.759,-1.886 -1.904,0 -3.491,0.628 -4.76,1.886 -1.269,1.257 -1.903,2.86 -1.903,4.812 0,1.95 0.634,3.554 1.903,4.812 1.269,1.256 2.856,1.886 4.76,1.886 1.903,0 3.49,-0.63 4.759,-1.886 1.269,-1.258 1.903,-2.862 1.903,-4.812 0,-1.952 -0.634,-3.555 -1.903,-4.812 m 4.424,13.96 c -2.502,2.479 -5.565,3.719 -9.183,3.719 -3.62,0 -6.681,-1.24 -9.184,-3.719 -2.504,-2.479 -3.755,-5.529 -3.755,-9.148 0,-3.62 1.251,-6.669 3.755,-9.149 2.503,-2.479 5.564,-3.719 9.184,-3.719 3.618,0 6.681,1.24 9.183,3.719 2.504,2.48 3.755,5.529 3.755,9.149 0,3.619 -1.251,6.669 -3.755,9.148 m -85.578,-7.421 c -0.494,-0.517 -1.128,-0.764 -1.904,-0.74 h -3.49 v 5.535 h 3.49 c 0.776,0 1.41,-0.26 1.904,-0.776 0.493,-0.517 0.74,-1.187 0.74,-2.009 0,-0.823 -0.247,-1.493 -0.74,-2.01 m 5.923,-1.991 c 0.752,1.233 1.128,2.59 1.128,4.071 0,2.468 -0.852,4.506 -2.556,6.117 -1.705,1.609 -3.814,2.415 -6.329,2.415 h -9.87 v -24.678 h 6.31 v 7.967 h 2.256 l 4.302,-7.967 h 6.769 l -5.077,9.13 c 1.292,0.729 2.315,1.711 3.067,2.945 m -78.651,12.603 h -6.311 v -24.678 h 14.807 v 6.099 h -8.496 z m -18.861,-15.124 h 8.496 v 5.816 h -8.496 v 3.42 h 9.378 v 5.888 h -15.689 v -24.678 h 15.865 v 5.922 h -9.554 z m 49.019,4.582 c -0.482,-0.493 -1.075,-0.74 -1.78,-0.74 h -3.278 v 5.254 h 3.278 c 0.705,0 1.298,-0.243 1.78,-0.724 0.482,-0.481 0.723,-1.11 0.723,-1.886 0,-0.775 -0.241,-1.41 -0.723,-1.904 m 4.495,8.109 c -1.692,1.622 -3.784,2.433 -6.275,2.433 h -9.589 v -24.678 h 6.311 v 7.403 h 3.278 c 2.491,0 4.583,0.811 6.275,2.433 1.692,1.621 2.539,3.689 2.539,6.204 0,2.515 -0.847,4.584 -2.539,6.205 m 10.119,-13.256 2.468,8.391 2.502,-8.391 z m -1.376,15.689 -8.143,-24.678 h 6.84 l 1.058,3.561 h 8.214 l 1.057,-3.561 h 6.804 l -8.143,24.678 z"
             style="fill:#eac771;fill-opacity:1;fill-rule:nonzero;stroke:none"
             id="path178" />
        </g>
        <g
           id="g180"
           transform="translate(357.0056,88.7278)">
          <path
             d="m 0,0 c 0,-1.167 -0.946,-2.113 -2.113,-2.113 -1.167,0 -2.113,0.946 -2.113,2.113 0,1.167 0.946,2.113 2.113,2.113 C -0.946,2.113 0,1.167 0,0"
             style="fill:#eac771;fill-opacity:1;fill-rule:nonzero;stroke:none"
             id="path182" />
        </g>
        <g
           id="g184"
           transform="translate(558.0724,88.7278)">
          <path
             d="m 0,0 c 0,-1.167 -0.946,-2.113 -2.113,-2.113 -1.167,0 -2.113,0.946 -2.113,2.113 0,1.167 0.946,2.113 2.113,2.113 C -0.946,2.113 0,1.167 0,0"
             style="fill:#eac771;fill-opacity:1;fill-rule:nonzero;stroke:none"
             id="path186" />
        </g>
        <g
           id="g188"
           transform="translate(450.4117,239.9228)">
          <path
             d="m 0,0 c -25.355,-1.183 -45.55,-22.116 -45.55,-47.763 v -62.892 c 0,-0.385 0.312,-0.697 0.696,-0.697 h 11.235 c 0.004,0.001 0.007,0.001 0.011,0.001 2.49,0.405 4.974,0.749 7.487,0.684 6.008,-0.151 12.022,-0.133 18.025,-0.458 1.701,-0.093 3.39,0.127 5.079,0.209 3.21,0.156 6.403,-0.459 9.619,-0.041 1.91,0.244 3.849,-0.145 5.788,0.012 3.152,0.255 6.298,-0.116 9.445,-0.279 0.62,-0.029 1.241,-0.081 1.861,-0.128 10e-4,0 0.003,0 0.004,0 h 3.606 c 0.007,0.001 0.013,0.001 0.02,0.002 4.615,0.594 9.236,1.067 13.897,0.945 0.209,-0.006 0.418,-0.012 0.622,0.017 l 7.352,0.041 c 0.49,0.003 0.885,0.401 0.885,0.89 v 61.014 C 50.082,-21.042 27.371,1.277 0,0"
             style="fill:#034045;fill-opacity:1;fill-rule:nonzero;stroke:none"
             id="path190" />
        </g>
        <g
           id="g192"
           transform="translate(503.5804,155.8123)">
          <path
             d="m 0,0 c -0.144,-0.42 -0.626,-0.528 -1.056,-0.544 -3.215,-0.128 -5.938,-1.399 -8.415,-3.235 -0.369,-0.272 -0.728,-0.554 -1.087,-0.851 -1.697,-1.4 -3.933,-2.574 -5.681,-2.99 v 7.753 c 2.287,0.493 4.527,0.708 6.768,0.959 0.057,0.005 0.118,0.016 0.174,0.021 -0.056,0.015 -0.117,0.031 -0.174,0.041 -2.225,0.559 -4.446,0.154 -6.712,0.056 v 7.487 c 2.471,0.384 4.723,0.015 6.712,-1.349 C -9.245,7.189 -9.02,7.02 -8.799,6.835 -6.902,5.261 -5.123,3.543 -2.928,2.348 -2.123,1.913 -1.251,1.584 -0.559,0.959 -0.277,0.697 0.149,0.42 0,0 m -23.931,6.574 c -0.949,-0.877 -1.918,-1.728 -2.825,-2.641 -1.426,-1.42 -3.21,-1.954 -5.123,-2.097 -1.492,-0.118 -3,-0.087 -4.482,0.164 -0.492,0.082 -0.984,0.159 -1.589,0.128 0.441,0.974 0.99,1.79 1.579,2.569 5.374,7.112 11.738,13.163 19.306,17.916 2.461,1.549 4.907,3.128 7.466,4.518 0.041,0.02 0.082,0.041 0.128,0.061 0.205,0.108 0.431,0.251 0.492,0.687 -0.164,-0.066 -0.328,-0.133 -0.492,-0.205 -5.943,-2.487 -10.973,-6.276 -15.921,-10.101 -5.149,-3.99 -9.548,-8.764 -13.312,-14.209 0.2,2.01 -0.354,3.84 -0.636,5.702 -0.272,1.81 -0.702,3.584 -0.584,5.451 0.2,3.235 1.523,5.963 3.599,8.368 1.79,2.082 3.99,3.553 6.754,3.825 2.635,0.257 5.137,0.985 7.65,1.703 1.8,0.512 3.292,1.589 4.836,2.579 1.697,1.087 3.491,2.02 5.522,2.107 0.697,0.031 1.395,0.041 2.092,0.021 1.292,-0.041 2.579,-0.185 3.851,-0.498 0.995,-0.246 2.005,-0.394 3.02,-0.492 1.262,-0.123 1.636,-0.815 1.051,-1.923 -0.287,-0.538 -0.646,-1.02 -1.066,-1.456 -2.256,-2.333 -3.887,-5.015 -4.579,-8.209 -0.41,-1.887 -1.169,-3.513 -2.277,-4.877 -0.954,-1.184 -2.169,-2.174 -3.635,-2.964 -0.687,-0.369 -1.441,-0.656 -2.2,-0.841 -3.451,-0.835 -6.102,-2.953 -8.625,-5.286 m 6.676,-22.019 c -0.769,-0.235 -1.451,0.026 -2.138,0.082 -0.169,0.282 -0.108,0.58 -0.108,0.862 0.047,7.594 0.098,15.188 0.129,22.782 0.005,0.416 0.102,0.682 0.497,0.867 0.564,0.261 1.061,0.651 1.677,0.825 0.487,-8.501 -0.282,-16.947 -0.057,-25.418 m -3.138,0.088 c -0.579,0 -1.072,-0.016 -1.559,0 -2.61,0.082 -5.179,-0.313 -7.748,-0.708 -0.738,-0.118 -1.461,-0.026 -2.22,0.056 -0.241,5.656 -0.251,11.225 -0.2,16.845 0.528,0.092 1.036,0.195 1.549,0.256 2.076,0.257 3.702,1.364 5.225,2.708 1.415,1.251 2.717,2.635 4.22,3.794 0.226,0.174 0.461,0.339 0.79,0.58 0.471,-7.882 -0.354,-15.655 -0.057,-23.531 m -12.742,2.681 c -2.62,-1 -5.251,-1.589 -7.984,-0.389 -0.836,0.364 -2.025,0.405 -2.42,1.138 -0.405,0.749 0.374,1.713 0.512,2.605 0.17,1.087 0.821,1.656 1.805,2.118 2.703,1.266 5.477,2.302 8.446,2.974 0,-2.677 0,-5.297 0.005,-7.917 0,-0.283 -0.113,-0.436 -0.364,-0.529 m 0.195,-3.374 c -3.933,0.19 -7.83,0.529 -11.774,-0.133 0.221,1.138 0.426,2.179 0.795,3.318 3.528,-2.175 7.159,-2.682 10.979,-0.703 z m -14.209,5.077 c 0.954,0.825 1.856,1.389 2.907,2.097 -0.241,-0.943 -0.431,-1.692 -0.63,-2.477 -0.734,0.057 -1.359,0.441 -2.277,0.38 m 1.266,-5.189 c -2.158,0.087 -4.261,-0.77 -6.471,-0.052 1.133,1.651 2.533,2.995 4,4.256 0.62,0.534 1.359,0.005 2.041,-0.01 0.374,-0.005 0.743,-0.2 1.169,-0.328 -0.246,-1.292 -0.487,-2.559 -0.739,-3.866 m 7.148,17.121 c 0.257,0.436 0.605,0.538 1.062,0.441 1.61,-0.344 3.215,-0.733 4.943,-0.467 v -4.097 c -3.123,-0.959 -6.287,-1.764 -9.256,-3.215 0.882,2.569 1.877,5.036 3.251,7.338 m -1.856,-0.805 c -1.246,-2.118 -2.189,-4.405 -2.923,-6.758 -0.148,-0.482 -0.4,-0.8 -0.841,-1.062 -1.169,-0.687 -2.312,-1.436 -3.584,-2.236 0.692,2.108 0.498,4.241 0.939,6.292 0.651,3.005 2.374,5.323 4.691,7.246 0.687,0.569 1.436,1.056 2.308,1.692 0.113,-1.826 0.4,-3.497 -0.59,-5.174 M -53.882,-16.25 c -1.83,0.011 -3.661,0.006 -5.548,0.006 0,0.599 -0.072,1.076 0.01,1.528 0.292,1.635 0.005,3.256 -0.061,4.876 -0.072,1.646 -0.303,3.287 -0.421,4.933 -0.189,2.697 -0.754,5.333 -1.338,7.958 -0.164,0.738 -0.082,1.4 0.184,2.072 0.518,1.312 1.031,2.63 1.58,3.933 1.482,3.507 0.959,6.384 -1.805,9.014 -1.318,1.256 -1.995,2.769 -2.436,4.477 -0.779,3.03 -1.83,5.953 -3.748,8.481 -1.021,1.348 -2.154,2.584 -3.615,3.476 -0.2,0.118 -0.421,0.221 -0.41,0.518 0.041,1.415 -0.195,2.831 -0.077,4.241 0.277,0.205 0.574,0.107 0.851,0.113 3.733,0.071 7.466,0.051 11.189,0.225 4.097,0.195 8.194,0.344 12.291,0.236 3.651,-0.097 7.301,-0.256 10.952,-0.297 1.098,-0.011 2.185,0.287 3.374,0.113 0,-3.436 -0.087,-6.8 0.036,-10.158 0.062,-1.759 -0.292,-2.908 -1.897,-4.031 -3.512,-2.456 -5.502,-6.061 -6.317,-10.276 -0.395,-2.046 -0.077,-4.076 0.338,-6.086 0.118,-0.59 0.113,-1.221 0.313,-1.78 0.318,-0.876 -0.01,-1.343 -0.749,-1.764 -3.051,-1.738 -5.276,-4.204 -6.486,-7.537 -0.4,-1.098 -0.58,-2.226 -0.575,-3.395 0.011,-1.764 -0.112,-3.507 -0.892,-5.143 -0.189,-0.41 -0.395,-0.784 -0.728,-1.097 -1.384,-1.292 -2.748,-2.605 -3.6,-4.343 -0.082,-0.175 -0.184,-0.293 -0.415,-0.293 m -6.517,0.026 c -3.641,0.518 -7.21,-0.113 -10.886,0.236 0,1.036 0.005,2.077 0,3.117 0,0.231 0.159,0.303 0.323,0.39 1.579,0.877 2.748,2.185 3.769,3.636 0.953,1.353 2.43,1.728 3.907,2.102 0.051,0.01 0.108,0 0.154,-0.01 0.871,-0.221 2.646,-2.508 2.774,-3.4 0.292,-2 -0.139,-3.974 -0.041,-6.071 m -11.009,13.553 c 2.538,-0.811 4.871,-1.877 7.101,-3.328 -0.512,-0.18 -0.963,-0.313 -1.389,-0.493 -1,-0.425 -1.861,-0.974 -2.528,-1.902 -0.795,-1.118 -1.723,-2.159 -3.056,-2.995 0.02,2.974 -0.246,5.8 -0.128,8.718 m 0.005,4.481 v 1.605 c 1.03,-0.697 2.143,-1.102 2.928,-2.041 -0.944,0.298 -1.882,0.559 -2.928,0.436 m 6.656,-6.225 c -1.185,0.518 -2.185,1.169 -3.298,1.559 -1.128,0.4 -2.246,0.836 -3.374,1.256 v 2.738 c 2.754,0.267 5.185,-1.743 6.672,-5.553 m -6.702,15.711 c 3.322,-0.917 5.814,-2.876 7.953,-5.384 1.241,-1.451 1.507,-3.235 1.887,-4.994 0.559,-2.615 0.871,-5.266 1.061,-7.928 0.015,-0.159 0.005,-0.312 0.005,-0.543 -1.507,1.307 -2.994,2.507 -3.794,4.358 -0.58,1.349 -1.41,2.575 -2.231,3.795 -1.071,1.59 -2.512,2.733 -4.292,3.451 -0.277,0.113 -0.6,0.159 -0.594,0.61 0.015,2.179 0.005,4.359 0.005,6.635 m -0.626,-21.874 v -5.41 c -0.856,-0.036 -1.646,-0.195 -2.533,-0.031 0.082,9.589 -0.097,19.147 -0.138,28.833 0.887,-0.415 1.64,-0.774 2.399,-1.113 0.41,-0.184 0.262,-0.533 0.262,-0.82 0.01,-7.153 0.01,-14.306 0.01,-21.459 m -3.297,21.074 c 0,-8.542 -0.01,-17.085 -0.021,-25.628 v -0.974 c -4.05,0.513 -7.973,0.015 -11.891,-0.103 -0.112,0.518 -0.6,39.181 -0.497,40.094 0.713,-1.272 1.446,-2.405 2.354,-3.41 2.21,-2.446 5.009,-4.133 7.732,-5.912 0.744,-0.482 1.764,-0.769 2.2,-1.446 0.446,-0.682 0.123,-1.733 0.123,-2.621 m -12.994,-22.074 c -0.753,0.225 -1.456,0.497 -1.922,1.077 -1.047,1.292 -2.288,2.169 -3.657,2.779 -1.405,0.625 -2.943,0.969 -4.548,1.189 -1.63,0.226 -3.266,0.487 -4.579,1.667 -0.759,0.682 -1.323,1.477 -1.692,2.425 -0.415,1.072 -1.097,1.887 -2.154,2.39 -0.569,0.272 -1.102,0.625 -1.543,1.077 -0.964,0.984 -0.462,2.302 0.682,2.445 1.866,0.231 3.446,1.103 4.953,2.221 1.831,1.359 3.99,1.918 6.246,2.128 0.441,0.036 0.882,0.107 1.323,0.149 0.456,0.04 0.892,0.03 1.312,-0.026 1.985,-0.267 3.585,-1.518 5.261,-2.564 0.18,-0.108 0.216,-0.277 0.216,-0.472 -0.005,-1.466 -0.005,-2.933 -0.005,-4.507 h -4.831 c -0.184,0 -0.364,-0.005 -0.548,-0.005 -0.031,0 -0.062,0 -0.093,-0.005 -0.22,-0.005 -0.43,-0.067 -0.41,-0.349 0.016,-0.226 0.216,-0.251 0.41,-0.272 0.026,0 0.052,-0.005 0.077,-0.005 1.046,-0.113 2.092,-0.195 3.144,-0.159 0.733,0.026 1.456,-0.072 2.251,-0.19 0.005,-3.656 0.225,-7.291 0.107,-10.993 m -1.779,43.78 c -1.231,1.759 -2.097,3.682 -2.866,5.779 1.661,0.451 3.24,0.431 4.748,-0.251 1.918,-0.862 3.892,-1.513 5.963,-1.918 1.682,-0.328 3.39,-0.344 5.082,-0.513 5.707,-0.574 9.399,-3.733 11.501,-8.937 0.6,-1.482 1.093,-3 1.508,-4.538 0.467,-1.734 1.287,-3.236 2.6,-4.497 1.297,-1.246 2.02,-2.805 1.994,-4.631 -0.015,-0.954 -0.328,-1.856 -0.682,-2.733 -0.518,-1.287 -1.051,-2.569 -1.579,-3.861 -0.215,0.056 -0.21,0.241 -0.262,0.41 -0.902,3.19 -2.245,6.205 -3.891,9.071 -1.564,2.713 -3.882,4.748 -6.292,6.676 -2.584,2.072 -5.359,3.862 -8.245,5.492 -1.816,1.021 -3.451,2.297 -4.897,3.805 -0.149,0.159 -0.246,0.431 -0.59,0.343 -0.097,-0.369 0.149,-0.625 0.338,-0.892 1.241,-1.728 2.964,-2.882 4.749,-3.953 3.194,-1.928 6.225,-4.082 9.153,-6.4 3.758,-2.974 6.096,-6.871 7.789,-11.245 0.276,-0.702 0.523,-1.42 0.774,-2.138 0.015,-0.041 -0.005,-0.102 -0.016,-0.272 -0.841,0.775 -1.62,1.523 -2.394,2.257 -1.518,1.451 -3.323,2.358 -5.225,3.143 -4.369,1.81 -8.4,4.23 -12.112,7.117 -2.23,1.733 -3.841,4.005 -4.42,6.887 -0.436,2.143 -1.487,4.03 -2.728,5.799 m 17.865,3.071 c -0.815,0.19 -1.395,0.58 -2.077,0.672 -0.225,0.031 -0.236,0.246 -0.236,0.436 -0.005,1.656 -0.015,3.313 -0.015,4.969 0,0.523 0.323,0.636 0.784,0.641 3.205,0.03 6.415,0.01 9.615,0.133 3.707,0.139 7.42,-0.026 11.117,0.144 2.892,0.133 5.784,0.189 8.671,0.077 3.497,-0.134 6.989,0.133 10.481,0.035 0.359,-0.01 0.723,0 1.148,0 -0.041,-0.656 -0.082,-1.225 -0.118,-1.825 -1.358,-0.241 -2.722,-0.272 -4.076,-0.277 -2.605,-0.01 -5.21,-0.015 -7.81,0.067 -3.83,0.123 -7.665,0.066 -11.491,-0.072 -3.364,-0.128 -6.727,0.031 -10.086,-0.22 -1.487,-0.108 -2.989,0.082 -4.487,0.117 -1.061,0.026 -1.348,-0.179 -1.405,-1.215 -0.066,-1.2 -0.015,-2.405 -0.015,-3.682 m -14.583,20.911 c 11.019,-0.031 22.034,-0.061 33.053,-0.107 3.338,-0.011 6.681,-0.144 10.019,-0.098 6.302,0.092 12.604,0.282 18.911,0.421 1.287,0.03 2.575,0.035 3.867,0.025 1.128,-0.01 1.528,-0.389 1.497,-1.538 -0.113,-3.784 -0.267,-7.563 -0.405,-11.394 -2,-0.128 -4.005,-0.256 -6.03,-0.384 0.056,-0.534 0.441,-0.4 0.718,-0.405 1.758,-0.011 3.522,-0.006 5.317,-0.006 0.169,-0.615 0.072,-1.205 0.072,-1.871 -3.502,0.107 -6.907,-0.534 -10.348,-0.8 h 10.404 c 0.046,-0.041 -0.041,-0.292 -0.041,-0.508 0.005,-2.866 -0.005,-5.733 0.016,-8.594 0.005,-0.487 -0.159,-0.769 -0.57,-0.995 -1.584,-0.866 -3.343,-1.184 -5.071,-1.599 -2.087,-0.498 -4.271,-0.416 -6.43,-1.134 0.01,5.066 0.123,10.071 -0.046,15.112 1.179,0.441 2.528,0 3.712,0.6 -0.236,0.389 -0.559,0.225 -0.82,0.256 -1.887,0.21 -3.769,0.062 -5.656,0.02 -2.682,-0.056 -5.369,0.042 -8.045,-0.056 -2.995,-0.113 -5.984,-0.272 -8.984,-0.261 -7.256,0.025 -14.517,-0.021 -21.772,0.005 -1.698,0.005 -3.39,0.374 -5.097,0.164 -0.334,-0.041 -0.693,-0.021 -0.903,-0.523 1.344,-0.303 2.682,-0.38 4.097,-0.477 -0.195,-1.923 -0.148,-3.831 -0.133,-5.733 -4.118,0.262 -8.235,0.174 -11.968,2.22 -0.369,0.206 -0.544,0.385 -0.528,0.826 0.041,0.918 0.015,1.836 0.015,2.805 1.385,0.113 2.79,-0.159 4.077,0.528 -1.308,0.467 -2.677,0.174 -4.005,0.39 -0.077,2.666 -0.19,5.333 -0.215,8.004 -0.011,1.21 -0.18,2.41 -0.175,3.62 0.005,1.364 0.128,1.492 1.467,1.487 m 67.952,-0.938 c 0.995,-0.657 1.584,-1.503 2.302,-2.215 0.2,-0.2 0.103,-0.503 0.098,-0.759 -0.072,-2.759 -0.277,-5.523 -0.205,-8.276 0.087,-3.549 -0.093,-7.097 0.061,-10.645 0.031,-0.682 -0.138,-1.123 -0.769,-1.452 -0.569,-0.302 -1.082,-0.717 -1.795,-1.205 0.103,8.266 0.206,16.337 0.308,24.552 M 0.4,1.482 C 0.015,1.836 -0.4,2.179 -0.861,2.42 -3.477,3.795 -5.892,5.446 -8.148,7.358 -8.574,7.717 -9.015,8.04 -9.471,8.317 c -1.569,0.964 -3.328,1.446 -5.266,1.405 -0.482,-0.01 -0.949,-0.333 -1.42,-0.118 -0.17,0.59 0.077,0.8 0.615,0.959 1.205,0.354 2.41,0.754 3.476,1.436 0.975,0.62 1.841,1.328 2.595,2.123 1.482,1.543 2.549,3.405 3.225,5.558 0.934,2.974 2.446,5.62 4.436,8.004 0.646,0.78 1.092,1.657 1.328,2.646 0.302,1.246 -0.308,2.364 -1.554,2.544 -1.348,0.195 -2.692,0.374 -4.02,0.666 -0.666,0.144 -1.343,0.252 -2.015,0.303 -0.467,0.036 -0.933,0.077 -1.4,0.113 -2.215,0.153 -4.43,0.123 -6.62,-1.318 0.241,3.297 -0.02,6.317 0.159,9.337 0.077,1.339 0.19,2.677 0.144,4.015 -0.077,2.123 -0.19,4.246 0.056,6.369 0.072,0.605 -0.051,1.138 -0.533,1.569 -0.805,0.718 -1.579,1.472 -2.395,2.169 -0.769,0.661 -1.605,1.036 -2.702,0.995 -2.231,-0.092 -4.471,-0.185 -6.702,-0.164 -7.127,0.066 -14.255,-0.246 -21.382,-0.205 -8.23,0.046 -16.465,-0.052 -24.701,0.082 -4.363,0.066 -8.732,-0.011 -13.096,0.169 -1.159,0.051 -1.666,-0.523 -1.687,-1.641 -0.056,-2.733 0.287,-5.466 0.103,-8.194 -0.128,-1.954 0.041,-3.882 0.133,-5.825 0.041,-0.728 0.103,-1.467 -0.036,-2.179 -0.23,-0.118 -0.425,-0.011 -0.63,0.015 -1.231,0.138 -2.467,0.185 -3.672,-0.154 -0.379,-0.108 -0.769,-0.266 -0.913,-0.595 -0.071,-0.159 -0.082,-0.359 -0.005,-0.615 0,-0.005 0.005,-0.01 0.005,-0.015 0.595,-1.959 1.323,-3.862 2.441,-5.59 0.769,-1.189 1.585,-2.358 2.164,-3.661 0.328,-0.733 0.697,-1.461 0.708,-2.307 0.046,-3.261 0.118,-6.517 0.148,-9.779 0.026,-3.046 0.006,-6.091 0.006,-9.189 -0.165,0.052 -0.267,0.062 -0.354,0.108 -1.646,0.846 -3.344,1.39 -5.113,1.528 -0.907,0.077 -1.84,0.046 -2.794,-0.102 -2.236,-0.354 -4.482,-0.718 -6.394,-2.016 -1.657,-1.128 -3.333,-2.163 -5.272,-2.743 -0.841,-0.246 -1.21,-0.948 -1.241,-1.82 -0.041,-1.297 0.821,-2.015 1.775,-2.59 1.153,-0.697 1.917,-1.635 2.451,-2.866 0.841,-1.949 2.384,-3.159 4.394,-3.774 1.231,-0.379 2.492,-0.61 3.764,-0.779 1.184,-0.154 2.307,-0.426 3.317,-0.929 0.78,-0.384 1.488,-0.907 2.108,-1.62 0.846,-0.964 1.836,-1.718 3.051,-2.159 0.225,-0.082 0.451,-0.154 0.451,-0.466 -0.01,-1.098 -0.005,-2.195 -0.005,-3.292 -1.933,-0.246 -3.764,-0.421 -5.605,-0.364 -0.056,0 -0.107,0.005 -0.164,0.005 -0.307,0.015 -0.687,0.061 -0.759,-0.364 -0.082,-0.446 0.293,-0.569 0.616,-0.687 0.118,-0.047 0.251,-0.052 0.384,-0.072 3.508,-0.482 7.005,-0.287 10.466,0.272 0.041,0.005 0.087,0.015 0.128,0.02 2.159,0.349 4.313,0.641 6.492,0.585 5.307,-0.134 10.619,-0.118 15.921,-0.405 1.503,-0.082 2.995,0.112 4.487,0.184 2.836,0.139 5.656,-0.405 8.497,-0.036 1.687,0.216 3.399,-0.128 5.112,0.011 2.784,0.225 5.564,-0.103 8.343,-0.247 0.548,-0.025 1.097,-0.071 1.646,-0.112 1.061,-0.077 2.128,-0.134 3.189,0 0.016,0 0.031,0.005 0.046,0.005 4.067,0.523 8.138,0.938 12.245,0.83 0.185,-0.005 0.369,-0.01 0.549,0.016 2.41,0.39 4.82,0.231 7.23,0.046 0.015,0 0.031,0 0.046,-0.005 0.41,-0.026 0.918,-0.036 0.969,0.477 0.057,0.579 -0.477,0.574 -0.912,0.569 h -0.057 c -0.267,0 -0.543,-0.005 -0.81,-0.005 -1.99,-0.005 -3.984,-0.005 -6.061,-0.005 0,2.302 0.005,4.507 0,6.707 0,0.271 0.154,0.353 0.385,0.4 2.456,0.507 4.502,1.81 6.44,3.317 0.015,0.01 0.031,0.026 0.046,0.036 1.867,1.446 3.82,2.728 6.179,3.21 0.918,0.19 1.872,0.236 2.8,0.4 0.666,0.118 1.266,0.436 1.497,1.128 C 1.246,0.38 0.928,0.995 0.4,1.482"
             style="fill:#eac771;fill-opacity:1;fill-rule:nonzero;stroke:none"
             id="path194" />
        </g>
        <g
           id="g196"
           transform="translate(440.3094,134.7654)">
          <path
             d="m 0,0 c 3.084,-0.252 6.524,0.306 9.984,0.477 2.813,0.139 5.618,-0.129 8.424,-0.287 1.678,-0.095 3.36,-0.012 5.038,-0.197 1.563,-0.173 3.139,-0.233 4.708,-0.349 0.155,-0.012 0.306,-0.068 0.459,-0.105 0.289,-0.069 0.611,-0.147 0.558,-0.525 -0.046,-0.336 -0.34,-0.463 -0.65,-0.448 -0.917,0.044 -1.839,0.059 -2.746,0.178 -1.624,0.213 -3.254,0.174 -4.88,0.187 -3.154,0.025 -6.312,0.052 -9.463,-0.065 -4.835,-0.179 -9.67,-0.152 -14.506,-0.141 -1.022,0.002 -2.045,0.099 -3.067,0.152 -0.318,0.016 -0.591,0.112 -0.599,0.482 -0.008,0.39 0.282,0.432 0.594,0.467 1.913,0.21 3.834,0.1 6.146,0.174"
             style="fill:#eac771;fill-opacity:1;fill-rule:nonzero;stroke:none"
             id="path198" />
        </g>
        <g
           id="g200"
           transform="translate(450.8777,187.5696)">
          <path
             d="m 0,0 c -0.036,0.008 -0.066,0.03 -0.085,0.06 -0.02,0.031 -0.028,0.069 -0.02,0.105 0.017,0.061 0.072,0.105 0.135,0.105 0.011,0 0.022,0 0.033,-0.003 C 0.096,0.259 0.129,0.237 0.149,0.206 0.168,0.173 0.173,0.138 0.165,0.102 0.149,0.028 0.071,-0.019 0,0 m -2.521,-8.699 -0.263,0.081 2.469,8.033 0.263,-0.081 z M 6.387,1.728 C 6.362,1.756 6.351,1.791 6.351,1.827 6.354,1.863 6.37,1.899 6.395,1.923 6.422,1.945 6.455,1.959 6.488,1.959 6.527,1.959 6.566,1.943 6.59,1.915 6.615,1.888 6.629,1.852 6.626,1.816 6.626,1.778 6.61,1.745 6.582,1.72 6.527,1.67 6.439,1.673 6.387,1.728 M -0.848,0.253 c -0.278,0.102 -0.55,0.223 -0.809,0.358 -0.261,0.132 -0.517,0.286 -0.762,0.451 -0.03,0.019 -0.049,0.052 -0.058,0.088 -0.005,0.036 0.003,0.072 0.022,0.102 0.028,0.039 0.069,0.061 0.116,0.061 0.027,0 0.052,-0.009 0.077,-0.022 C -2.031,1.131 -1.783,0.985 -1.53,0.856 -1.282,0.727 -1.021,0.611 -0.754,0.512 -0.718,0.498 -0.691,0.473 -0.674,0.44 -0.661,0.407 -0.658,0.369 -0.672,0.336 -0.696,0.267 -0.779,0.228 -0.848,0.253 M 2.636,-0.129 C 2.353,-0.168 2.058,-0.19 1.766,-0.193 H 1.753 1.668 C 1.4,-0.193 1.131,-0.179 0.872,-0.151 0.834,-0.146 0.801,-0.129 0.779,-0.099 0.757,-0.072 0.746,-0.036 0.748,0 0.757,0.077 0.823,0.132 0.9,0.124 1.18,0.094 1.472,0.077 1.75,0.083 c 0.286,0.002 0.572,0.024 0.85,0.06 0.006,0 0.011,0.003 0.017,0.003 0.069,0 0.129,-0.052 0.138,-0.121 C 2.763,-0.05 2.71,-0.118 2.636,-0.129 m 0.867,0.17 C 3.431,0.022 3.354,0.066 3.335,0.138 3.327,0.173 3.332,0.212 3.352,0.242 3.368,0.275 3.398,0.297 3.434,0.305 3.445,0.311 3.459,0.311 3.47,0.311 3.533,0.311 3.588,0.27 3.602,0.209 3.613,0.173 3.607,0.135 3.588,0.105 3.569,0.071 3.539,0.049 3.503,0.041 m 1.643,0.65 C 4.887,0.55 4.617,0.424 4.345,0.316 4.276,0.289 4.194,0.325 4.166,0.393 4.138,0.462 4.174,0.545 4.243,0.572 4.502,0.674 4.76,0.795 5.014,0.933 5.261,1.068 5.503,1.222 5.734,1.387 5.759,1.403 5.787,1.412 5.814,1.412 5.858,1.412 5.902,1.39 5.927,1.354 5.971,1.293 5.957,1.205 5.897,1.161 5.655,0.991 5.401,0.831 5.146,0.691 M -4.945,4.397 c -0.069,-0.024 -0.151,0.011 -0.179,0.08 -0.014,0.036 -0.014,0.072 0.003,0.107 0.014,0.033 0.041,0.058 0.077,0.072 0.017,0.005 0.033,0.008 0.049,0.008 0.056,0 0.108,-0.036 0.127,-0.088 C -4.84,4.505 -4.876,4.425 -4.945,4.397 m 1.827,-2.793 c -0.027,0.022 -0.044,0.058 -0.047,0.094 -0.002,0.036 0.011,0.071 0.036,0.099 0.025,0.03 0.064,0.047 0.102,0.047 0.033,0 0.066,-0.011 0.091,-0.033 0.058,-0.05 0.063,-0.138 0.014,-0.196 C -2.972,1.56 -3.063,1.555 -3.118,1.604 M -5.223,5.223 C -5.294,5.204 -5.371,5.25 -5.388,5.322 -5.46,5.605 -5.512,5.9 -5.548,6.191 -5.583,6.483 -5.603,6.78 -5.603,7.075 c 0,0.077 0.064,0.137 0.138,0.137 0.077,0 0.138,-0.06 0.138,-0.137 0,-0.286 0.019,-0.573 0.052,-0.851 C -5.239,5.941 -5.19,5.66 -5.121,5.388 -5.113,5.352 -5.118,5.316 -5.138,5.283 -5.157,5.253 -5.187,5.231 -5.223,5.223 m 3.156,-5.025 c 0.028,0 0.055,-0.008 0.077,-0.025 0.031,-0.019 0.053,-0.052 0.058,-0.088 0.006,-0.036 -0.003,-0.071 -0.025,-0.102 l -0.996,-1.422 c -0.041,-0.061 -0.129,-0.077 -0.19,-0.036 -0.03,0.022 -0.052,0.052 -0.057,0.091 -0.006,0.036 0.002,0.071 0.024,0.102 L -2.18,0.14 c 0.025,0.036 0.067,0.058 0.113,0.058 m -1.574,-2.383 c -0.03,0.019 -0.049,0.052 -0.057,0.088 -0.006,0.036 0.002,0.072 0.022,0.102 0.027,0.039 0.068,0.06 0.112,0.06 0.031,0 0.058,-0.008 0.08,-0.024 0.061,-0.044 0.077,-0.13 0.033,-0.193 -0.041,-0.06 -0.132,-0.074 -0.19,-0.033 M -3.745,2.223 C -3.943,2.444 -4.128,2.677 -4.296,2.917 -4.463,3.156 -4.62,3.412 -4.758,3.674 -4.794,3.74 -4.766,3.822 -4.7,3.858 c 0.019,0.011 0.041,0.016 0.063,0.016 0.053,0 0.099,-0.027 0.124,-0.074 0.129,-0.245 0.278,-0.487 0.44,-0.721 L -4.07,3.074 C -3.908,2.843 -3.729,2.617 -3.542,2.408 -3.492,2.353 -3.495,2.265 -3.553,2.215 -3.608,2.166 -3.698,2.171 -3.745,2.223 M 8.761,5.492 C 8.748,5.418 8.671,5.371 8.599,5.388 8.525,5.404 8.478,5.479 8.495,5.55 8.555,5.825 8.599,6.109 8.627,6.392 8.649,6.618 8.66,6.849 8.66,7.075 c 0,0.077 0.063,0.137 0.137,0.137 0.077,0 0.138,-0.06 0.138,-0.137 0,-0.24 -0.011,-0.479 -0.033,-0.71 C 8.872,6.07 8.827,5.776 8.761,5.492 m 3.358,1.445 c -0.077,0 -0.138,0.063 -0.138,0.138 0,0.077 0.061,0.137 0.138,0.137 0.074,0 0.137,-0.06 0.137,-0.137 0,-0.075 -0.063,-0.138 -0.137,-0.138 m 2.603,0 h -1.737 c -0.074,0 -0.137,0.063 -0.137,0.138 0,0.077 0.063,0.137 0.137,0.137 h 1.737 c 0.077,0 0.137,-0.06 0.137,-0.137 0,-0.075 -0.06,-0.138 -0.137,-0.138 M 9.234,4.47 9.262,4.743 16.305,4.011 16.276,3.737 Z m 8.963,2.467 h -1.736 c -0.077,0 -0.138,0.063 -0.138,0.138 0,0.077 0.061,0.137 0.138,0.137 h 1.736 c 0.077,0 0.138,-0.06 0.138,-0.137 0,-0.075 -0.061,-0.138 -0.138,-0.138 m -2.606,0 c -0.074,0 -0.137,0.063 -0.137,0.138 0,0.077 0.063,0.137 0.137,0.137 0.077,0 0.138,-0.06 0.138,-0.137 0,-0.075 -0.061,-0.138 -0.138,-0.138 m -4.342,0 H 9.513 C 9.436,6.937 9.375,7 9.375,7.075 c 0,0.077 0.061,0.137 0.138,0.137 h 1.736 c 0.077,0 0.138,-0.06 0.138,-0.137 C 11.387,7 11.326,6.937 11.249,6.937 M 7.119,-1.877 C 7.141,-1.907 7.149,-1.943 7.143,-1.978 7.138,-2.014 7.119,-2.047 7.089,-2.069 7.03,-2.111 6.94,-2.097 6.896,-2.039 c -0.044,0.063 -0.03,0.149 0.03,0.193 0.025,0.016 0.052,0.027 0.083,0.027 0.044,0 0.085,-0.022 0.11,-0.058 M 6.387,-1.335 5.366,0.069 c -0.044,0.063 -0.03,0.148 0.03,0.192 0.025,0.02 0.052,0.028 0.08,0.028 0.044,0 0.085,-0.022 0.113,-0.058 L 6.61,-1.175 C 6.632,-1.203 6.64,-1.241 6.634,-1.277 6.629,-1.313 6.61,-1.346 6.579,-1.365 6.519,-1.409 6.431,-1.395 6.387,-1.335 M 3.649,-0.582 3.908,-0.49 6.726,-8.41 6.467,-8.502 Z m 4.87,5.224 C 8.495,4.571 8.412,4.532 8.343,4.557 8.277,4.582 8.241,4.65 8.255,4.717 H 8.252 L 8.258,4.733 C 8.277,4.788 8.332,4.827 8.39,4.827 8.404,4.827 8.42,4.824 8.434,4.818 8.506,4.791 8.544,4.714 8.519,4.642 m -21.45,-0.996 6.973,0.902 0.035,-0.273 -6.973,-0.902 z M 7.729,3.063 C 7.567,2.818 7.385,2.578 7.196,2.355 7.149,2.3 7.058,2.292 7.003,2.342 6.976,2.367 6.956,2.399 6.954,2.435 6.954,2.463 6.959,2.49 6.97,2.512 H 6.967 l 0.02,0.022 c 0.178,0.209 0.352,0.438 0.511,0.68 0.157,0.234 0.3,0.481 0.427,0.737 0.025,0.047 0.072,0.075 0.124,0.075 0.022,0 0.041,-0.003 0.06,-0.014 C 8.178,3.979 8.206,3.896 8.173,3.828 8.041,3.566 7.892,3.31 7.729,3.063 M 8.382,2.887 9.997,2.245 C 10.066,2.218 10.101,2.138 10.074,2.066 10.047,2.001 9.964,1.962 9.895,1.99 L 8.28,2.631 C 8.244,2.644 8.217,2.669 8.203,2.705 c -0.014,0.033 -0.014,0.069 0,0.105 0.019,0.052 0.069,0.085 0.126,0.085 0.017,0 0.036,-0.003 0.053,-0.008 M -11.601,0.201 c 0.057,0 0.107,-0.033 0.126,-0.085 0.03,-0.072 -0.005,-0.152 -0.074,-0.179 l -1.613,-0.65 c -0.068,-0.027 -0.151,0.009 -0.178,0.077 -0.028,0.072 0.005,0.152 0.077,0.179 l 1.609,0.65 c 0.017,0.005 0.033,0.008 0.053,0.008 M 7.518,-2.523 c 0.044,0 0.085,-0.02 0.113,-0.055 l 1.02,-1.407 c 0.044,-0.06 0.031,-0.148 -0.03,-0.192 -0.06,-0.041 -0.149,-0.028 -0.193,0.03 l -1.02,1.406 c -0.044,0.061 -0.031,0.146 0.03,0.193 0.025,0.016 0.052,0.025 0.08,0.025 m 1.533,-2.108 c 0.043,0 0.085,-0.019 0.109,-0.055 C 9.182,-4.717 9.191,-4.752 9.185,-4.791 9.18,-4.827 9.16,-4.857 9.13,-4.879 c -0.057,-0.044 -0.148,-0.03 -0.192,0.03 -0.02,0.031 -0.031,0.067 -0.025,0.102 0.008,0.036 0.027,0.069 0.058,0.091 0.022,0.017 0.049,0.025 0.08,0.025 m -7.416,0.465 h 0.002 c 0.075,0 0.138,-0.061 0.138,-0.138 L 1.783,-6.04 c 0,-0.074 -0.06,-0.138 -0.137,-0.138 -0.078,0 -0.138,0.061 -0.138,0.138 L 1.5,-4.304 c 0,0.075 0.06,0.138 0.135,0.138 m 0.019,-3.476 c 0.077,0 0.137,-0.06 0.137,-0.134 L 1.799,-9.513 C 1.802,-9.551 1.788,-9.584 1.761,-9.612 1.684,-9.689 1.527,-9.628 1.524,-9.516 l -0.008,1.737 c 0,0.038 0.014,0.071 0.041,0.099 0.025,0.025 0.061,0.038 0.097,0.038 m 7.908,2.309 c 0.044,0 0.086,-0.022 0.11,-0.058 l 1.021,-1.403 c 0.022,-0.03 0.031,-0.066 0.025,-0.105 -0.005,-0.035 -0.025,-0.066 -0.055,-0.088 -0.061,-0.044 -0.149,-0.03 -0.193,0.031 L 9.449,-5.55 c -0.021,0.027 -0.03,0.066 -0.024,0.101 0.005,0.036 0.024,0.067 0.055,0.089 0.024,0.019 0.052,0.027 0.082,0.027 M 1.648,-6.772 h 0.003 c 0.074,0 0.135,-0.061 0.137,-0.138 0,-0.074 -0.063,-0.137 -0.137,-0.137 -0.077,0 -0.138,0.06 -0.138,0.137 -0.002,0.075 0.061,0.138 0.135,0.138 m -0.016,3.475 c 0.077,0 0.137,-0.063 0.137,-0.137 0,-0.036 -0.014,-0.072 -0.038,-0.099 -0.077,-0.077 -0.237,-0.017 -0.237,0.096 0,0.039 0.014,0.072 0.041,0.099 0.025,0.025 0.058,0.041 0.097,0.041 M 14.79,0.338 c 0.017,0 0.033,-0.002 0.05,-0.011 l 1.615,-0.638 c 0.036,-0.014 0.061,-0.038 0.077,-0.072 0.014,-0.035 0.014,-0.071 0,-0.107 -0.024,-0.069 -0.107,-0.104 -0.178,-0.077 L 14.741,0.074 C 14.705,0.085 14.678,0.113 14.664,0.146 14.65,0.179 14.647,0.217 14.661,0.25 14.683,0.305 14.733,0.338 14.79,0.338 M 10.702,1.67 c -0.034,0.014 -0.061,0.042 -0.075,0.075 -0.016,0.033 -0.016,0.071 -0.003,0.104 0.022,0.053 0.072,0.088 0.127,0.088 0.019,0 0.036,-0.003 0.052,-0.011 C 10.875,1.899 10.908,1.819 10.88,1.747 10.853,1.679 10.773,1.643 10.702,1.67 m 6.51,-2.292 c 0.019,0 0.036,-0.003 0.052,-0.008 0.033,-0.014 0.061,-0.039 0.075,-0.074 0.016,-0.034 0.016,-0.069 0.002,-0.105 -0.027,-0.069 -0.11,-0.105 -0.179,-0.077 -0.071,0.027 -0.104,0.107 -0.077,0.179 0.02,0.052 0.072,0.085 0.127,0.085 m -3.228,1.28 c 0.017,0 0.033,-0.003 0.05,-0.009 0.069,-0.03 0.104,-0.11 0.077,-0.178 -0.028,-0.069 -0.11,-0.105 -0.179,-0.078 -0.033,0.014 -0.061,0.039 -0.074,0.072 -0.017,0.036 -0.017,0.072 -0.003,0.107 0.022,0.053 0.071,0.086 0.129,0.086 M 13.126,0.713 11.51,1.351 C 11.475,1.365 11.447,1.39 11.433,1.425 11.42,1.458 11.42,1.497 11.431,1.53 c 0.022,0.052 0.071,0.088 0.129,0.088 0.017,0 0.033,-0.006 0.05,-0.011 l 1.615,-0.638 c 0.036,-0.014 0.063,-0.042 0.077,-0.075 0.014,-0.033 0.014,-0.071 0,-0.104 C 13.274,0.721 13.194,0.685 13.126,0.713 M 7.222,1.468 13.58,-3.223 13.416,-3.445 7.058,1.246 Z M 1.618,-0.693 c 0.077,0 0.137,-0.061 0.137,-0.135 l 0.011,-1.739 c 0,-0.075 -0.063,-0.138 -0.137,-0.138 -0.077,0 -0.138,0.061 -0.138,0.138 L 1.48,-0.831 c 0,0.039 0.014,0.071 0.042,0.099 0.024,0.025 0.06,0.039 0.096,0.039 m -12.465,1.208 c 0.016,0.008 0.035,0.011 0.052,0.011 0.055,0 0.107,-0.033 0.127,-0.086 0.013,-0.036 0.013,-0.074 0,-0.107 -0.017,-0.033 -0.042,-0.058 -0.078,-0.072 -0.068,-0.03 -0.151,0.006 -0.178,0.075 -0.014,0.036 -0.011,0.071 0.002,0.107 0.014,0.033 0.042,0.058 0.075,0.072 m -3.008,6.422 h -1.736 c -0.075,0 -0.138,0.063 -0.138,0.138 0,0.077 0.063,0.137 0.138,0.137 h 1.736 c 0.077,0 0.138,-0.06 0.138,-0.137 0,-0.075 -0.061,-0.138 -0.138,-0.138 m 3.814,-6.098 1.612,0.647 c 0.017,0.008 0.033,0.011 0.05,0.011 0.058,0 0.107,-0.033 0.129,-0.085 C -8.222,1.34 -8.255,1.26 -8.327,1.23 L -9.939,0.583 c -0.069,-0.027 -0.152,0.009 -0.179,0.077 -0.028,0.072 0.008,0.152 0.077,0.179 m -2.945,6.098 c -0.074,0 -0.137,0.063 -0.137,0.138 0,0.077 0.063,0.137 0.137,0.137 0.078,0 0.138,-0.06 0.138,-0.137 0,-0.075 -0.06,-0.138 -0.138,-0.138 m 3.476,0 c -0.077,0 -0.138,0.063 -0.138,0.138 0,0.077 0.061,0.137 0.138,0.137 0.074,0 0.138,-0.06 0.138,-0.137 C -9.372,7 -9.436,6.937 -9.51,6.937 m -0.87,0 h -1.736 c -0.077,0 -0.138,0.063 -0.138,0.138 0,0.077 0.061,0.137 0.138,0.137 h 1.736 c 0.077,0 0.138,-0.06 0.138,-0.137 0,-0.075 -0.061,-0.138 -0.138,-0.138 M -5.556,-4.78 c 0.028,0 0.055,-0.008 0.08,-0.025 0.061,-0.044 0.077,-0.129 0.033,-0.192 -0.041,-0.061 -0.132,-0.077 -0.19,-0.033 -0.03,0.019 -0.052,0.052 -0.058,0.088 -0.005,0.036 0.003,0.071 0.022,0.102 0.025,0.038 0.069,0.06 0.113,0.06 M -6.904,6.937 h -1.739 c -0.075,0 -0.138,0.063 -0.138,0.138 0,0.077 0.063,0.137 0.138,0.137 h 1.739 c 0.074,0 0.137,-0.06 0.137,-0.137 C -6.767,7 -6.83,6.937 -6.904,6.937 M -6.167,-5.55 c 0.028,0.036 0.069,0.058 0.113,0.058 0.028,0 0.055,-0.009 0.08,-0.025 0.03,-0.022 0.049,-0.053 0.055,-0.088 0.008,-0.039 0,-0.075 -0.022,-0.105 l -0.996,-1.422 c -0.042,-0.058 -0.132,-0.075 -0.193,-0.034 -0.03,0.023 -0.049,0.053 -0.055,0.091 -0.008,0.036 0,0.072 0.022,0.102 z m 1.993,2.845 c 0.027,0.036 0.068,0.058 0.112,0.058 0.031,0 0.055,-0.008 0.08,-0.025 0.03,-0.022 0.05,-0.052 0.058,-0.088 0.005,-0.036 -0.003,-0.074 -0.025,-0.102 l -0.996,-1.425 c -0.041,-0.058 -0.132,-0.075 -0.193,-0.033 -0.027,0.022 -0.049,0.052 -0.055,0.091 -0.005,0.035 0.003,0.071 0.022,0.101 z M -5.102,2.526 -6.714,1.879 c -0.069,-0.027 -0.152,0.009 -0.179,0.077 -0.028,0.069 0.005,0.149 0.077,0.179 l 1.61,0.647 c 0.016,0.005 0.035,0.011 0.052,0.011 0.058,0 0.107,-0.036 0.127,-0.088 0.013,-0.033 0.013,-0.072 0,-0.105 C -5.041,2.567 -5.069,2.54 -5.102,2.526 M -7.699,1.632 c -0.028,0.068 0.005,0.151 0.077,0.179 0.016,0.005 0.033,0.011 0.049,0.011 0.058,0 0.107,-0.036 0.129,-0.088 C -7.416,1.665 -7.449,1.582 -7.521,1.555 -7.589,1.527 -7.672,1.563 -7.699,1.632 m 4.103,-0.584 -6.173,-4.893 -0.171,0.215 6.173,4.894 z"
             style="fill:#eac771;fill-opacity:1;fill-rule:nonzero;stroke:none"
             id="path202" />
        </g>
      </g>
    </g>
  </g>
</svg>
